<?xml version="1.0" encoding="UTF-8"?>
<svg version="1.1" xmlns="http://www.w3.org/2000/svg" width="1024" height="1024">
<path d="M0 0 C3.54464005 0.00535444 7.08915285 0.00002054 10.63378906 -0.00634766 C21.68291726 -0.01037406 32.71785333 0.09712642 43.75878906 0.54443359 C44.66237152 0.57898651 45.56595398 0.61353943 46.49691772 0.6491394 C69.77287862 1.72258566 69.77287862 1.72258566 73.18066406 5.13037109 C75.84796903 5.48462253 78.50514197 5.79162646 81.18066406 6.06787109 C87.30034344 6.73696116 93.20422272 7.60909512 99.18066406 9.13037109 C99.18066406 9.79037109 99.18066406 10.45037109 99.18066406 11.13037109 C100.23253906 11.08912109 101.28441406 11.04787109 102.36816406 11.00537109 C106.07396956 11.12687291 107.83115658 11.77461806 111.18066406 13.13037109 C114.17056951 13.59074571 117.16645943 13.8808291 120.18066406 14.13037109 C120.18066406 14.79037109 120.18066406 15.45037109 120.18066406 16.13037109 C121.30214844 16.20384766 121.30214844 16.20384766 122.44628906 16.27880859 C123.43113281 16.35357422 124.41597656 16.42833984 125.43066406 16.50537109 C126.40519531 16.57498047 127.37972656 16.64458984 128.38378906 16.71630859 C131.15465029 17.12651989 132.72426804 17.86495496 135.18066406 19.13037109 C137.41867755 19.71960653 139.67043301 20.25812026 141.93066406 20.75537109 C143.10113281 21.01576172 144.27160156 21.27615234 145.47753906 21.54443359 C146.36957031 21.73779297 147.26160156 21.93115234 148.18066406 22.13037109 C148.18066406 22.79037109 148.18066406 23.45037109 148.18066406 24.13037109 C149.03337891 24.20384766 149.03337891 24.20384766 149.90332031 24.27880859 C154.89147535 24.7618019 159.40665984 25.60675273 164.18066406 27.13037109 C164.18066406 27.79037109 164.18066406 28.45037109 164.18066406 29.13037109 C167.15066406 29.46037109 170.12066406 29.79037109 173.18066406 30.13037109 C173.18066406 30.79037109 173.18066406 31.45037109 173.18066406 32.13037109 C174.69660156 32.31599609 174.69660156 32.31599609 176.24316406 32.50537109 C180.06004018 33.11122445 183.49566518 34.00231021 187.18066406 35.13037109 C187.18066406 35.79037109 187.18066406 36.45037109 187.18066406 37.13037109 C188.03917969 37.24251953 188.89769531 37.35466797 189.78222656 37.47021484 C193.31698966 38.15685273 196.2566953 39.26331796 199.55566406 40.69287109 C200.61527344 41.14791016 201.67488281 41.60294922 202.76660156 42.07177734 C203.56324219 42.42111328 204.35988281 42.77044922 205.18066406 43.13037109 C205.18066406 43.79037109 205.18066406 44.45037109 205.18066406 45.13037109 C205.90253906 45.25412109 206.62441406 45.37787109 207.36816406 45.50537109 C210.13788301 46.12086419 212.57769946 47.01481484 215.18066406 48.13037109 C215.18066406 48.79037109 215.18066406 49.45037109 215.18066406 50.13037109 C215.74269531 50.22447266 216.30472656 50.31857422 216.88378906 50.41552734 C219.74598238 51.306312 221.57836867 52.71908991 223.93066406 54.56787109 C224.72988281 55.18533203 225.52910156 55.80279297 226.35253906 56.43896484 C226.95582031 56.99712891 227.55910156 57.55529297 228.18066406 58.13037109 C228.18066406 58.79037109 228.18066406 59.45037109 228.18066406 60.13037109 C228.74269531 60.19353516 229.30472656 60.25669922 229.88378906 60.32177734 C233.14845375 61.47107257 234.66307878 63.48534341 236.93066406 66.06787109 C237.72988281 66.96376953 238.52910156 67.85966797 239.35253906 68.78271484 C241.18066406 71.13037109 241.18066406 71.13037109 241.18066406 73.13037109 C241.84066406 73.13037109 242.50066406 73.13037109 243.18066406 73.13037109 C243.51066406 74.78037109 243.84066406 76.43037109 244.18066406 78.13037109 C245.17066406 78.46037109 246.16066406 78.79037109 247.18066406 79.13037109 C247.18066406 79.79037109 247.18066406 80.45037109 247.18066406 81.13037109 C247.84066406 81.13037109 248.50066406 81.13037109 249.18066406 81.13037109 C249.51839844 81.84064453 249.85613281 82.55091797 250.20410156 83.28271484 C250.873125 84.66136719 250.873125 84.66136719 251.55566406 86.06787109 C251.99652344 86.98439453 252.43738281 87.90091797 252.89160156 88.84521484 C253.97265568 91.25940912 253.97265568 91.25940912 256.18066406 92.13037109 C258.85037732 96.49994084 260.71266889 101.23705386 262.18066406 106.13037109 C262.84066406 106.13037109 263.50066406 106.13037109 264.18066406 106.13037109 C264.18066406 107.45037109 264.18066406 108.77037109 264.18066406 110.13037109 C264.84066406 110.13037109 265.50066406 110.13037109 266.18066406 110.13037109 C266.63957031 110.99919922 267.09847656 111.86802734 267.57128906 112.76318359 C268.18488281 113.91560547 268.79847656 115.06802734 269.43066406 116.25537109 C270.33558594 117.96080078 270.33558594 117.96080078 271.25878906 119.70068359 C273.1205633 123.15929658 273.1205633 123.15929658 275.41503906 126.31005859 C277.18066406 129.13037109 277.18066406 129.13037109 277.18066406 133.13037109 C277.84066406 133.13037109 278.50066406 133.13037109 279.18066406 133.13037109 C279.51066406 134.78037109 279.84066406 136.43037109 280.18066406 138.13037109 C280.84066406 138.13037109 281.50066406 138.13037109 282.18066406 138.13037109 C285.18066406 143.88037109 285.18066406 143.88037109 285.18066406 146.13037109 C285.84066406 146.13037109 286.50066406 146.13037109 287.18066406 146.13037109 C289.21501937 149.86002249 290.18066406 151.79942151 290.18066406 156.13037109 C290.84066406 156.13037109 291.50066406 156.13037109 292.18066406 156.13037109 C295.2635067 160.00073116 297.71265108 164.13823259 298.18066406 169.13037109 C298.84066406 169.13037109 299.50066406 169.13037109 300.18066406 169.13037109 C300.51066406 170.78037109 300.84066406 172.43037109 301.18066406 174.13037109 C301.84066406 174.13037109 302.50066406 174.13037109 303.18066406 174.13037109 C305.18066406 178.13037109 307.18066406 182.13037109 309.18066406 186.13037109 C309.57511719 186.85740234 309.96957031 187.58443359 310.37597656 188.33349609 C311.18066406 190.13037109 311.18066406 190.13037109 311.18066406 193.13037109 C311.84066406 193.13037109 312.50066406 193.13037109 313.18066406 193.13037109 C315.92351068 199.08977266 315.58697125 204.86095933 315.61816406 211.31787109 C315.65103516 212.49929687 315.68390625 213.68072266 315.71777344 214.89794922 C315.76624162 222.85113733 314.45087991 228.39102886 310.18066406 235.13037109 C309.52066406 235.13037109 308.86066406 235.13037109 308.18066406 235.13037109 C308.09816406 235.66662109 308.01566406 236.20287109 307.93066406 236.75537109 C306.90485135 240.00377801 305.21502512 242.41788968 303.18066406 245.13037109 C302.52066406 245.13037109 301.86066406 245.13037109 301.18066406 245.13037109 C300.85066406 246.12037109 300.52066406 247.11037109 300.18066406 248.13037109 C299.52066406 248.13037109 298.86066406 248.13037109 298.18066406 248.13037109 C297.91253906 248.76974609 297.64441406 249.40912109 297.36816406 250.06787109 C296.18066406 252.13037109 296.18066406 252.13037109 293.18066406 253.13037109 C293.18066406 253.79037109 293.18066406 254.45037109 293.18066406 255.13037109 C290.98535156 256.97021484 290.98535156 256.97021484 288.05566406 259.06787109 C287.10433594 259.75751953 286.15300781 260.44716797 285.17285156 261.15771484 C277.63016901 266.13037109 277.63016901 266.13037109 274.18066406 266.13037109 C274.18066406 266.79037109 274.18066406 267.45037109 274.18066406 268.13037109 C271.59900606 269.28010948 269.01548099 270.42527468 266.43066406 271.56787109 C265.33625 272.05610352 265.33625 272.05610352 264.21972656 272.55419922 C263.51074219 272.86679687 262.80175781 273.17939453 262.07128906 273.50146484 C261.42192383 273.78948975 260.77255859 274.07751465 260.10351562 274.37426758 C254.37590001 276.62648007 248.69795702 276.35083962 242.61816406 276.38037109 C241.06645508 276.41130859 241.06645508 276.41130859 239.48339844 276.44287109 C230.31765827 276.48878588 222.63843478 274.51590878 214.18066406 271.13037109 C212.08488161 270.55712069 209.98009036 270.01594668 207.86816406 269.50537109 C206.26521484 269.11478516 206.26521484 269.11478516 204.62988281 268.71630859 C203.82164062 268.52294922 203.01339844 268.32958984 202.18066406 268.13037109 C202.18066406 267.47037109 202.18066406 266.81037109 202.18066406 266.13037109 C199.54066406 265.80037109 196.90066406 265.47037109 194.18066406 265.13037109 C194.18066406 264.47037109 194.18066406 263.81037109 194.18066406 263.13037109 C192.88128906 263.04787109 191.58191406 262.96537109 190.24316406 262.88037109 C185.856327 262.40130932 182.53973795 261.0963202 178.59863281 259.18505859 C174.29064926 257.30597045 169.733812 256.2537646 165.18066406 255.13037109 C165.18066406 254.47037109 165.18066406 253.81037109 165.18066406 253.13037109 C162.87066406 252.80037109 160.56066406 252.47037109 158.18066406 252.13037109 C158.18066406 251.47037109 158.18066406 250.81037109 158.18066406 250.13037109 C157.35566406 250.19224609 156.53066406 250.25412109 155.68066406 250.31787109 C151.2987271 250.08312447 148.22571325 248.80418455 144.18066406 247.13037109 C144.18066406 246.47037109 144.18066406 245.81037109 144.18066406 245.13037109 C143.14941406 245.00662109 142.11816406 244.88287109 141.05566406 244.75537109 C137.5594956 244.19147295 134.49668779 243.34355051 131.18066406 242.13037109 C131.18066406 241.47037109 131.18066406 240.81037109 131.18066406 240.13037109 C128.87066406 239.80037109 126.56066406 239.47037109 124.18066406 239.13037109 C124.18066406 238.47037109 124.18066406 237.81037109 124.18066406 237.13037109 C123.47941406 237.19224609 122.77816406 237.25412109 122.05566406 237.31787109 C118.52806194 237.08781009 116.24082055 235.83836541 113.18066406 234.13037109 C113.18066406 233.47037109 113.18066406 232.81037109 113.18066406 232.13037109 C111.96378906 232.00662109 110.74691406 231.88287109 109.49316406 231.75537109 C106.11587348 231.34145804 103.28309711 230.58463659 100.18066406 229.13037109 C100.18066406 228.47037109 100.18066406 227.81037109 100.18066406 227.13037109 C99.52066406 227.04787109 98.86066406 226.96537109 98.18066406 226.88037109 C94.83867663 226.04487424 92.16428094 224.69382415 89.14550781 223.06787109 C87.16910709 222.12485683 85.31684153 221.58710392 83.18066406 221.13037109 C83.18066406 220.47037109 83.18066406 219.81037109 83.18066406 219.13037109 C82.33503906 218.88287109 81.48941406 218.63537109 80.61816406 218.38037109 C76.79638932 216.99063482 73.66198343 215.21916272 70.18066406 213.13037109 C70.18066406 212.47037109 70.18066406 211.81037109 70.18066406 211.13037109 C69.19066406 211.13037109 68.20066406 211.13037109 67.18066406 211.13037109 C67.18066406 210.47037109 67.18066406 209.81037109 67.18066406 209.13037109 C66.19066406 208.80037109 65.20066406 208.47037109 64.18066406 208.13037109 C64.18066406 207.47037109 64.18066406 206.81037109 64.18066406 206.13037109 C63.45878906 205.92412109 62.73691406 205.71787109 61.99316406 205.50537109 C58.20848022 203.65508122 56.65807754 201.52796672 54.18066406 198.13037109 C54.18066406 197.47037109 54.18066406 196.81037109 54.18066406 196.13037109 C53.19066406 195.80037109 52.20066406 195.47037109 51.18066406 195.13037109 C51.18066406 194.47037109 51.18066406 193.81037109 51.18066406 193.13037109 C50.52066406 193.13037109 49.86066406 193.13037109 49.18066406 193.13037109 C47.72872042 191.24984167 46.36701802 189.2990026 45.05566406 187.31787109 C44.33121094 186.23892578 43.60675781 185.15998047 42.86035156 184.04833984 C41.18066406 181.13037109 41.18066406 181.13037109 41.18066406 178.13037109 C40.52066406 178.13037109 39.86066406 178.13037109 39.18066406 178.13037109 C38.85066406 176.48037109 38.52066406 174.83037109 38.18066406 173.13037109 C37.52066406 173.13037109 36.86066406 173.13037109 36.18066406 173.13037109 C35.67662639 171.84027466 35.1775648 170.5482332 34.68066406 169.25537109 C34.26300781 168.17642578 34.26300781 168.17642578 33.83691406 167.07568359 C33.18066406 165.13037109 33.18066406 165.13037109 33.18066406 163.13037109 C32.52066406 163.13037109 31.86066406 163.13037109 31.18066406 163.13037109 C29.14072893 158.20052785 27.77413438 154.55076685 28.18066406 149.13037109 C27.52066406 149.13037109 26.86066406 149.13037109 26.18066406 149.13037109 C25.85066406 145.83037109 25.52066406 142.53037109 25.18066406 139.13037109 C24.52066406 139.13037109 23.86066406 139.13037109 23.18066406 139.13037109 C20.36192956 131.20268031 20.4375272 122.89146197 19.96972656 114.56201172 C19.89496094 113.381875 19.82019531 112.20173828 19.74316406 110.98583984 C19.68257812 109.90971436 19.62199219 108.83358887 19.55957031 107.72485352 C19.42154756 104.97292098 19.42154756 104.97292098 17.18066406 103.13037109 C15.24075003 102.70899825 15.24075003 102.70899825 13.11816406 102.56787109 C9.18066406 102.13037109 9.18066406 102.13037109 8.18066406 101.13037109 C6.47502628 100.97296504 4.76339162 100.87943718 3.05175781 100.81396484 C2.01728516 100.77207031 0.9828125 100.73017578 -0.08300781 100.68701172 C-1.17162109 100.64769531 -2.26023437 100.60837891 -3.38183594 100.56787109 C-4.47431641 100.5246875 -5.56679688 100.48150391 -6.69238281 100.43701172 C-9.40123157 100.33055041 -12.11017586 100.22853593 -14.81933594 100.13037109 C-14.81933594 100.79037109 -14.81933594 101.45037109 -14.81933594 102.13037109 C-15.38966553 102.18572021 -15.95999512 102.24106934 -16.54760742 102.2980957 C-19.11782347 102.55010852 -21.68731225 102.80889837 -24.25683594 103.06787109 C-25.15466797 103.15488281 -26.0525 103.24189453 -26.97753906 103.33154297 C-27.83154297 103.41855469 -28.68554688 103.50556641 -29.56542969 103.59521484 C-30.35618896 103.67376709 -31.14694824 103.75231934 -31.96166992 103.83325195 C-33.83036942 103.94588608 -33.83036942 103.94588608 -34.81933594 105.13037109 C-37.15266927 105.46370443 -39.4860026 105.79703776 -41.81933594 106.13037109 C-42.14933594 106.46037109 -42.47933594 106.79037109 -42.81933594 107.13037109 C-46.04653488 107.63177206 -49.28163073 108.03178787 -52.52246094 108.43505859 C-55.90851956 109.14917996 -57.91003172 110.32937324 -60.81933594 112.13037109 C-63.27636719 112.64208984 -63.27636719 112.64208984 -65.63183594 112.81787109 C-66.42203125 112.88361328 -67.21222656 112.94935547 -68.02636719 113.01708984 C-68.91388672 113.07316406 -68.91388672 113.07316406 -69.81933594 113.13037109 C-69.81933594 113.79037109 -69.81933594 114.45037109 -69.81933594 115.13037109 C-70.62371094 115.37787109 -71.42808594 115.62537109 -72.25683594 115.88037109 C-75.88604517 117.15377784 -79.2956682 118.68221054 -82.76855469 120.32568359 C-84.81933594 121.13037109 -84.81933594 121.13037109 -87.81933594 121.13037109 C-87.81933594 121.79037109 -87.81933594 122.45037109 -87.81933594 123.13037109 C-90.72482476 125.17206594 -92.22075639 126.13037109 -95.81933594 126.13037109 C-95.81933594 126.79037109 -95.81933594 127.45037109 -95.81933594 128.13037109 C-102.22663077 132.02500129 -102.22663077 132.02500129 -105.63183594 132.63037109 C-106.71464844 132.87787109 -106.71464844 132.87787109 -107.81933594 133.13037109 C-108.10164062 133.72333984 -108.38394531 134.31630859 -108.67480469 134.92724609 C-110.11308119 137.69580565 -111.84479251 139.00036083 -114.31933594 140.88037109 C-115.11339844 141.49396484 -115.90746094 142.10755859 -116.72558594 142.73974609 C-118.81933594 144.13037109 -118.81933594 144.13037109 -120.81933594 144.13037109 C-121.14933594 145.12037109 -121.47933594 146.11037109 -121.81933594 147.13037109 C-122.47933594 147.13037109 -123.13933594 147.13037109 -123.81933594 147.13037109 C-123.81933594 147.79037109 -123.81933594 148.45037109 -123.81933594 149.13037109 C-124.47933594 149.13037109 -125.13933594 149.13037109 -125.81933594 149.13037109 C-126.14933594 150.12037109 -126.47933594 151.11037109 -126.81933594 152.13037109 C-127.47933594 152.13037109 -128.13933594 152.13037109 -128.81933594 152.13037109 C-129.14933594 153.12037109 -129.47933594 154.11037109 -129.81933594 155.13037109 C-130.47933594 155.13037109 -131.13933594 155.13037109 -131.81933594 155.13037109 C-131.81933594 155.79037109 -131.81933594 156.45037109 -131.81933594 157.13037109 C-132.47933594 157.13037109 -133.13933594 157.13037109 -133.81933594 157.13037109 C-134.14933594 158.12037109 -134.47933594 159.11037109 -134.81933594 160.13037109 C-135.47933594 160.13037109 -136.13933594 160.13037109 -136.81933594 160.13037109 C-136.81933594 160.79037109 -136.81933594 161.45037109 -136.81933594 162.13037109 C-137.47933594 162.13037109 -138.13933594 162.13037109 -138.81933594 162.13037109 C-139.14933594 163.12037109 -139.47933594 164.11037109 -139.81933594 165.13037109 C-140.47933594 165.13037109 -141.13933594 165.13037109 -141.81933594 165.13037109 C-141.94308594 165.72849609 -142.06683594 166.32662109 -142.19433594 166.94287109 C-142.81933594 169.13037109 -142.81933594 169.13037109 -144.81933594 172.13037109 C-145.47933594 172.13037109 -146.13933594 172.13037109 -146.81933594 172.13037109 C-146.94308594 172.99662109 -146.94308594 172.99662109 -147.06933594 173.88037109 C-147.81933594 176.13037109 -147.81933594 176.13037109 -149.66308594 177.91162109 C-152.0712465 180.38958341 -153.46926161 182.82568375 -155.06933594 185.88037109 C-155.85050781 187.35763672 -155.85050781 187.35763672 -156.64746094 188.86474609 C-157.03417969 189.61240234 -157.42089844 190.36005859 -157.81933594 191.13037109 C-158.47933594 191.13037109 -159.13933594 191.13037109 -159.81933594 191.13037109 C-160.14933594 193.44037109 -160.47933594 195.75037109 -160.81933594 198.13037109 C-161.47933594 198.13037109 -162.13933594 198.13037109 -162.81933594 198.13037109 C-162.81933594 199.12037109 -162.81933594 200.11037109 -162.81933594 201.13037109 C-163.47933594 201.13037109 -164.13933594 201.13037109 -164.81933594 201.13037109 C-165.14933594 203.77037109 -165.47933594 206.41037109 -165.81933594 209.13037109 C-166.47933594 209.13037109 -167.13933594 209.13037109 -167.81933594 209.13037109 C-167.72652344 210.15130859 -167.72652344 210.15130859 -167.63183594 211.19287109 C-167.87801857 215.04973235 -169.17735756 217.64116703 -170.81933594 221.13037109 C-171.47933594 221.13037109 -172.13933594 221.13037109 -172.81933594 221.13037109 C-172.85671875 221.84322266 -172.89410156 222.55607422 -172.93261719 223.29052734 C-173.34473553 229.29452593 -174.22535786 233.7262501 -176.81933594 239.13037109 C-178.18821622 244.36823938 -178.1820701 249.77514495 -178.42480469 255.15576172 C-178.71709013 260.92587948 -178.71709013 260.92587948 -179.81933594 263.13037109 C-179.91977406 265.49673546 -179.95965875 267.83386029 -179.95520782 270.20062351 C-179.95775045 270.94072248 -179.96029307 271.68082145 -179.96291274 272.44334766 C-179.97029245 274.94910684 -179.97050918 277.45481722 -179.9708252 279.96058655 C-179.97467229 281.76511001 -179.97895923 283.56963257 -179.98365068 285.37415403 C-179.99532935 290.35350677 -180.00078402 295.33285033 -180.0052855 300.31221402 C-180.01122019 305.67520588 -180.02289195 311.03818545 -180.03392029 316.40116882 C-180.05229932 325.7035852 -180.06713369 335.00600184 -180.07969666 344.30842781 C-180.09797595 357.77682199 -180.12264303 371.24519872 -180.14907056 384.71357911 C-180.1919073 406.58761153 -180.23100527 428.4616488 -180.26708984 450.33569336 C-180.26925265 451.64597358 -180.27141545 452.9562538 -180.27364379 454.30623948 C-180.28896431 463.6017832 -180.30415652 472.89732714 -180.31933594 482.19287109 C-180.33664569 492.78507505 -180.3540372 503.37727886 -180.37158203 513.96948242 C-180.3737409 515.27362318 -180.37589977 516.57776393 -180.37812406 517.9214241 C-180.41428458 539.69352519 -180.45424891 561.46561773 -180.49688482 583.23770708 C-180.52299139 596.66396525 -180.54566271 610.09022087 -180.5638684 623.51649212 C-180.5765763 632.72919566 -180.59271759 641.9418891 -180.61151755 651.15458221 C-180.62223044 656.46492616 -180.63136753 661.77526043 -180.6362133 667.08561325 C-180.64068376 671.95736743 -180.6496968 676.82909232 -180.66215652 681.70083242 C-180.66585748 683.45341605 -180.66795105 685.20600406 -180.66817671 686.95859159 C-180.67013254 695.48210804 -180.785185 703.97730818 -181.26630402 712.48880672 C-181.32428361 713.53430996 -181.32428361 713.53430996 -181.3834345 714.60093448 C-181.60976379 718.19304814 -182.0594203 721.61540786 -182.81933594 725.13037109 C-183.0363208 727.56542347 -183.22224339 730.00338494 -183.38183594 732.44287109 C-183.465625 733.69712891 -183.54941406 734.95138672 -183.63574219 736.24365234 C-183.69632812 737.19626953 -183.75691406 738.14888672 -183.81933594 739.13037109 C-184.47933594 739.13037109 -185.13933594 739.13037109 -185.81933594 739.13037109 C-185.80773437 740.13197266 -185.79613281 741.13357422 -185.78417969 742.16552734 C-185.77479195 743.50797338 -185.76569282 744.85042145 -185.75683594 746.19287109 C-185.74523437 747.50384766 -185.73363281 748.81482422 -185.72167969 750.16552734 C-185.87718638 756.47909923 -186.98411075 762.13530215 -188.81933594 768.13037109 C-189.47933594 768.13037109 -190.13933594 768.13037109 -190.81933594 768.13037109 C-190.84511719 768.88060547 -190.87089844 769.63083984 -190.89746094 770.40380859 C-191.25473711 776.85101952 -192.21163785 782.08397825 -194.88183594 787.97412109 C-195.77061044 790.01830245 -196.34516557 791.95709025 -196.81933594 794.13037109 C-197.47933594 794.13037109 -198.13933594 794.13037109 -198.81933594 794.13037109 C-198.71621094 795.07912109 -198.61308594 796.02787109 -198.50683594 797.00537109 C-198.46975094 801.55755494 -200.46869474 804.89203161 -202.62792969 808.79833984 C-203.71996058 810.93585605 -204.35091828 812.78828279 -204.81933594 815.13037109 C-205.47933594 815.13037109 -206.13933594 815.13037109 -206.81933594 815.13037109 C-206.81933594 816.45037109 -206.81933594 817.77037109 -206.81933594 819.13037109 C-207.47933594 819.13037109 -208.13933594 819.13037109 -208.81933594 819.13037109 C-209.14933594 820.78037109 -209.47933594 822.43037109 -209.81933594 824.13037109 C-210.47933594 824.13037109 -211.13933594 824.13037109 -211.81933594 824.13037109 C-211.94308594 825.20287109 -212.06683594 826.27537109 -212.19433594 827.38037109 C-212.7157753 830.50900725 -213.22021848 832.46517533 -214.81933594 835.13037109 C-215.47933594 835.13037109 -216.13933594 835.13037109 -216.81933594 835.13037109 C-217.12871094 836.07912109 -217.43808594 837.02787109 -217.75683594 838.00537109 C-218.81933594 841.13037109 -218.81933594 841.13037109 -219.81933594 843.13037109 C-220.47933594 843.13037109 -221.13933594 843.13037109 -221.81933594 843.13037109 C-222.14933594 844.78037109 -222.47933594 846.43037109 -222.81933594 848.13037109 C-223.47933594 848.13037109 -224.13933594 848.13037109 -224.81933594 848.13037109 C-224.81933594 849.12037109 -224.81933594 850.11037109 -224.81933594 851.13037109 C-225.47933594 851.13037109 -226.13933594 851.13037109 -226.81933594 851.13037109 C-227.47933594 852.78037109 -228.13933594 854.43037109 -228.81933594 856.13037109 C-229.47933594 856.13037109 -230.13933594 856.13037109 -230.81933594 856.13037109 C-230.96371094 856.72849609 -231.10808594 857.32662109 -231.25683594 857.94287109 C-232.18266568 861.54332011 -232.9557502 863.72495908 -235.81933594 866.13037109 C-236.47933594 866.13037109 -237.13933594 866.13037109 -237.81933594 866.13037109 C-237.81933594 867.12037109 -237.81933594 868.11037109 -237.81933594 869.13037109 C-238.47933594 869.13037109 -239.13933594 869.13037109 -239.81933594 869.13037109 C-240.19058594 869.93474609 -240.19058594 869.93474609 -240.56933594 870.75537109 C-242.1258613 873.71276929 -243.85369267 876.4276116 -245.81933594 879.13037109 C-246.47933594 879.13037109 -247.13933594 879.13037109 -247.81933594 879.13037109 C-248.14933594 880.12037109 -248.47933594 881.11037109 -248.81933594 882.13037109 C-249.47933594 882.13037109 -250.13933594 882.13037109 -250.81933594 882.13037109 C-251.04621094 882.85224609 -251.27308594 883.57412109 -251.50683594 884.31787109 C-253.08168792 887.69255391 -255.1007124 889.61067123 -257.81933594 892.13037109 C-258.62371094 893.02755859 -258.62371094 893.02755859 -259.44433594 893.94287109 C-260.81933594 895.13037109 -260.81933594 895.13037109 -263.81933594 895.13037109 C-264.04621094 895.89349609 -264.27308594 896.65662109 -264.50683594 897.44287109 C-266.09710048 900.69912705 -267.68769534 901.44410308 -270.81933594 903.13037109 C-271.14933594 903.79037109 -271.47933594 904.45037109 -271.81933594 905.13037109 C-272.47933594 905.13037109 -273.13933594 905.13037109 -273.81933594 905.13037109 C-273.81933594 905.79037109 -273.81933594 906.45037109 -273.81933594 907.13037109 C-277.2808744 910.13037109 -277.2808744 910.13037109 -279.81933594 910.13037109 C-279.81933594 910.79037109 -279.81933594 911.45037109 -279.81933594 912.13037109 C-281.13933594 912.46037109 -282.45933594 912.79037109 -283.81933594 913.13037109 C-283.81933594 913.79037109 -283.81933594 914.45037109 -283.81933594 915.13037109 C-284.80933594 915.13037109 -285.79933594 915.13037109 -286.81933594 915.13037109 C-287.14933594 916.12037109 -287.47933594 917.11037109 -287.81933594 918.13037109 C-288.47933594 918.13037109 -289.13933594 918.13037109 -289.81933594 918.13037109 C-289.81933594 918.79037109 -289.81933594 919.45037109 -289.81933594 920.13037109 C-291.68261719 921.63818359 -291.68261719 921.63818359 -294.13183594 923.25537109 C-294.93234375 923.79419922 -295.73285156 924.33302734 -296.55761719 924.88818359 C-298.81933594 926.13037109 -298.81933594 926.13037109 -301.81933594 926.13037109 C-301.81933594 926.79037109 -301.81933594 927.45037109 -301.81933594 928.13037109 C-302.80933594 928.13037109 -303.79933594 928.13037109 -304.81933594 928.13037109 C-304.81933594 928.79037109 -304.81933594 929.45037109 -304.81933594 930.13037109 C-306.46933594 930.46037109 -308.11933594 930.79037109 -309.81933594 931.13037109 C-309.81933594 931.79037109 -309.81933594 932.45037109 -309.81933594 933.13037109 C-315.56933594 936.13037109 -315.56933594 936.13037109 -317.81933594 936.13037109 C-317.81933594 936.79037109 -317.81933594 937.45037109 -317.81933594 938.13037109 C-319.79933594 938.46037109 -321.77933594 938.79037109 -323.81933594 939.13037109 C-323.81933594 939.79037109 -323.81933594 940.45037109 -323.81933594 941.13037109 C-325.13933594 941.13037109 -326.45933594 941.13037109 -327.81933594 941.13037109 C-327.81933594 941.79037109 -327.81933594 942.45037109 -327.81933594 943.13037109 C-329.46933594 943.46037109 -331.11933594 943.79037109 -332.81933594 944.13037109 C-332.81933594 944.79037109 -332.81933594 945.45037109 -332.81933594 946.13037109 C-333.55539062 946.39591797 -334.29144531 946.66146484 -335.04980469 946.93505859 C-336.025625 947.28826172 -337.00144531 947.64146484 -338.00683594 948.00537109 C-338.96976562 948.35341797 -339.93269531 948.70146484 -340.92480469 949.06005859 C-342.79759522 949.75256144 -344.65638556 950.48474247 -346.49511719 951.26318359 C-348.81933594 952.13037109 -348.81933594 952.13037109 -351.81933594 952.13037109 C-351.81933594 952.79037109 -351.81933594 953.45037109 -351.81933594 954.13037109 C-354.12933594 954.13037109 -356.43933594 954.13037109 -358.81933594 954.13037109 C-358.81933594 954.79037109 -358.81933594 955.45037109 -358.81933594 956.13037109 C-361.45933594 956.46037109 -364.09933594 956.79037109 -366.81933594 957.13037109 C-366.81933594 957.79037109 -366.81933594 958.45037109 -366.81933594 959.13037109 C-368.85893071 959.63875673 -370.90112732 960.13670995 -372.94433594 960.63037109 C-374.64976562 961.04802734 -374.64976562 961.04802734 -376.38964844 961.47412109 C-379.63400292 962.09490874 -382.52748051 962.25043877 -385.81933594 962.13037109 C-385.81933594 962.79037109 -385.81933594 963.45037109 -385.81933594 964.13037109 C-393.15980906 966.2601799 -400.19000891 967.39498892 -407.79980469 967.72021484 C-408.65956406 967.7597226 -409.51932343 967.79923035 -410.40513611 967.8399353 C-420.19834469 968.24873169 -429.99190561 968.28093784 -439.79223633 968.26074219 C-442.88269945 968.25536959 -445.97301771 968.2607344 -449.06347656 968.26708984 C-458.48745466 968.27140335 -467.9004309 968.18271762 -477.31542969 967.74755859 C-478.06244644 967.71719513 -478.8094632 967.68683167 -479.57911682 967.6555481 C-484.55273108 967.3876262 -489.01188722 966.43480894 -493.81933594 965.13037109 C-495.81534899 964.77394019 -497.81418094 964.43114434 -499.81933594 964.13037109 C-499.81933594 963.47037109 -499.81933594 962.81037109 -499.81933594 962.13037109 C-500.87507813 962.10910156 -500.87507813 962.10910156 -501.95214844 962.08740234 C-510.70621774 961.66455565 -517.75344221 959.36388766 -525.81933594 956.13037109 C-525.81933594 955.47037109 -525.81933594 954.81037109 -525.81933594 954.13037109 C-527.36621094 954.22318359 -527.36621094 954.22318359 -528.94433594 954.31787109 C-533.05402567 954.11901514 -535.3081609 953.18569307 -538.81933594 951.13037109 C-538.81933594 950.47037109 -538.81933594 949.81037109 -538.81933594 949.13037109 C-539.87121094 949.00662109 -540.92308594 948.88287109 -542.00683594 948.75537109 C-545.27892365 948.21896327 -547.8246967 947.49157075 -550.81933594 946.13037109 C-550.81933594 945.47037109 -550.81933594 944.81037109 -550.81933594 944.13037109 C-551.54507813 944.01822266 -552.27082031 943.90607422 -553.01855469 943.79052734 C-555.94497587 943.10075722 -558.04221403 942.07526295 -560.63183594 940.56787109 C-561.42203125 940.11283203 -562.21222656 939.65779297 -563.02636719 939.18896484 C-563.61804688 938.83962891 -564.20972656 938.49029297 -564.81933594 938.13037109 C-564.81933594 937.47037109 -564.81933594 936.81037109 -564.81933594 936.13037109 C-565.58246094 936.00662109 -566.34558594 935.88287109 -567.13183594 935.75537109 C-569.81933594 935.13037109 -569.81933594 935.13037109 -572.81933594 933.13037109 C-572.81933594 932.47037109 -572.81933594 931.81037109 -572.81933594 931.13037109 C-574.13933594 931.13037109 -575.45933594 931.13037109 -576.81933594 931.13037109 C-577.14933594 930.47037109 -577.47933594 929.81037109 -577.81933594 929.13037109 C-578.80933594 928.80037109 -579.79933594 928.47037109 -580.81933594 928.13037109 C-580.81933594 927.47037109 -580.81933594 926.81037109 -580.81933594 926.13037109 C-582.13933594 925.80037109 -583.45933594 925.47037109 -584.81933594 925.13037109 C-584.81933594 924.47037109 -584.81933594 923.81037109 -584.81933594 923.13037109 C-585.62371094 922.86224609 -586.42808594 922.59412109 -587.25683594 922.31787109 C-588.52527344 921.73005859 -588.52527344 921.73005859 -589.81933594 921.13037109 C-590.31433594 919.64537109 -590.31433594 919.64537109 -590.81933594 918.13037109 C-592.72112379 917.52975876 -592.72112379 917.52975876 -594.81933594 917.13037109 C-595.80933594 916.47037109 -596.79933594 915.81037109 -597.81933594 915.13037109 C-597.81933594 914.47037109 -597.81933594 913.81037109 -597.81933594 913.13037109 C-598.80933594 912.80037109 -599.79933594 912.47037109 -600.81933594 912.13037109 C-600.81933594 911.47037109 -600.81933594 910.81037109 -600.81933594 910.13037109 C-601.39683594 909.86224609 -601.97433594 909.59412109 -602.56933594 909.31787109 C-604.87483636 908.1010792 -606.83989786 906.8270323 -608.81933594 905.13037109 C-608.81933594 904.47037109 -608.81933594 903.81037109 -608.81933594 903.13037109 C-609.80933594 902.80037109 -610.79933594 902.47037109 -611.81933594 902.13037109 C-611.81933594 901.47037109 -611.81933594 900.81037109 -611.81933594 900.13037109 C-612.37621094 899.90349609 -612.93308594 899.67662109 -613.50683594 899.44287109 C-617.16272917 897.36790466 -620.21453074 894.85173975 -621.63183594 890.81787109 C-621.69371094 890.26099609 -621.75558594 889.70412109 -621.81933594 889.13037109 C-622.47933594 889.13037109 -623.13933594 889.13037109 -623.81933594 889.13037109 C-623.81933594 888.47037109 -623.81933594 887.81037109 -623.81933594 887.13037109 C-624.80933594 886.80037109 -625.79933594 886.47037109 -626.81933594 886.13037109 C-626.81933594 885.47037109 -626.81933594 884.81037109 -626.81933594 884.13037109 C-627.47933594 884.13037109 -628.13933594 884.13037109 -628.81933594 884.13037109 C-631.81933594 879.74575571 -631.81933594 879.74575571 -631.81933594 877.13037109 C-632.47933594 877.13037109 -633.13933594 877.13037109 -633.81933594 877.13037109 C-634.14933594 875.81037109 -634.47933594 874.49037109 -634.81933594 873.13037109 C-635.47933594 873.13037109 -636.13933594 873.13037109 -636.81933594 873.13037109 C-636.81933594 871.81037109 -636.81933594 870.49037109 -636.81933594 869.13037109 C-637.80933594 868.80037109 -638.79933594 868.47037109 -639.81933594 868.13037109 C-639.81933594 867.47037109 -639.81933594 866.81037109 -639.81933594 866.13037109 C-640.47933594 866.13037109 -641.13933594 866.13037109 -641.81933594 866.13037109 C-642.22925781 865.37111328 -642.63917969 864.61185547 -643.06152344 863.82958984 C-643.60035156 862.83572266 -644.13917969 861.84185547 -644.69433594 860.81787109 C-645.22800781 859.83173828 -645.76167969 858.84560547 -646.31152344 857.82958984 C-647.8265572 855.03450652 -647.8265572 855.03450652 -649.81933594 852.13037109 C-649.81933594 850.81037109 -649.81933594 849.49037109 -649.81933594 848.13037109 C-650.47933594 848.13037109 -651.13933594 848.13037109 -651.81933594 848.13037109 C-652.31433594 845.65537109 -652.31433594 845.65537109 -652.81933594 843.13037109 C-653.47933594 843.13037109 -654.13933594 843.13037109 -654.81933594 843.13037109 C-655.32548891 841.86197584 -655.82402693 840.59054008 -656.31933594 839.31787109 C-656.59777344 838.61017578 -656.87621094 837.90248047 -657.16308594 837.17333984 C-657.81933594 835.13037109 -657.81933594 835.13037109 -657.81933594 832.13037109 C-658.47933594 832.13037109 -659.13933594 832.13037109 -659.81933594 832.13037109 C-662.07618137 826.7703632 -663.18197453 822.9325886 -662.81933594 817.13037109 C-663.47933594 817.13037109 -664.13933594 817.13037109 -664.81933594 817.13037109 C-667.99524483 809.04513739 -670.30682513 801.60977713 -671.42480469 792.95849609 C-671.89844211 789.56331298 -672.8295873 786.40891347 -673.81933594 783.13037109 C-675.6669672 775.76892102 -676.12666039 768.7272552 -676.12011719 761.15771484 C-676.12440231 760.03579239 -676.12868744 758.91386993 -676.13310242 757.75794983 C-676.13881658 755.3938972 -676.13936762 753.029827 -676.13500977 750.66577148 C-676.13186624 747.10222299 -676.15529007 743.53951943 -676.18066406 739.97607422 C-676.21399061 727.37369155 -675.68216741 715.42765663 -672.81933594 703.13037109 C-672.15933594 703.13037109 -671.49933594 703.13037109 -670.81933594 703.13037109 C-670.77035156 702.34533203 -670.72136719 701.56029297 -670.67089844 700.75146484 C-670.25733234 694.94014806 -669.70151446 689.65142809 -667.81933594 684.13037109 C-667.15933594 684.13037109 -666.49933594 684.13037109 -665.81933594 684.13037109 C-665.48933594 681.82037109 -665.15933594 679.51037109 -664.81933594 677.13037109 C-664.15933594 677.13037109 -663.49933594 677.13037109 -662.81933594 677.13037109 C-662.81933594 675.15037109 -662.81933594 673.17037109 -662.81933594 671.13037109 C-662.15933594 671.13037109 -661.49933594 671.13037109 -660.81933594 671.13037109 C-660.71492187 670.25638672 -660.61050781 669.38240234 -660.50292969 668.48193359 C-659.78752783 664.97442047 -658.66120144 662.59424519 -656.88183594 659.50537109 C-655.1173529 656.40993894 -653.3768982 653.33578907 -651.81933594 650.13037109 C-651.15933594 650.13037109 -650.49933594 650.13037109 -649.81933594 650.13037109 C-649.71621094 649.57349609 -649.61308594 649.01662109 -649.50683594 648.44287109 C-648.67522239 645.64562552 -647.39804444 643.58613987 -645.81933594 641.13037109 C-644.79839844 639.49068359 -644.79839844 639.49068359 -643.75683594 637.81787109 C-643.11746094 636.93099609 -642.47808594 636.04412109 -641.81933594 635.13037109 C-641.15933594 635.13037109 -640.49933594 635.13037109 -639.81933594 635.13037109 C-639.48933594 634.14037109 -639.15933594 633.15037109 -638.81933594 632.13037109 C-638.15933594 632.13037109 -637.49933594 632.13037109 -636.81933594 632.13037109 C-636.63371094 631.23318359 -636.63371094 631.23318359 -636.44433594 630.31787109 C-635.81933594 628.13037109 -635.81933594 628.13037109 -633.81933594 625.13037109 C-633.15933594 625.13037109 -632.49933594 625.13037109 -631.81933594 625.13037109 C-631.41714844 624.17130859 -631.41714844 624.17130859 -631.00683594 623.19287109 C-629.81933594 621.13037109 -629.81933594 621.13037109 -626.81933594 620.13037109 C-626.48933594 619.14037109 -626.15933594 618.15037109 -625.81933594 617.13037109 C-625.15933594 617.13037109 -624.49933594 617.13037109 -623.81933594 617.13037109 C-623.48933594 616.14037109 -623.15933594 615.15037109 -622.81933594 614.13037109 C-622.15933594 614.13037109 -621.49933594 614.13037109 -620.81933594 614.13037109 C-620.81933594 613.47037109 -620.81933594 612.81037109 -620.81933594 612.13037109 C-620.15933594 612.13037109 -619.49933594 612.13037109 -618.81933594 612.13037109 C-618.81933594 611.47037109 -618.81933594 610.81037109 -618.81933594 610.13037109 C-617.13284204 608.51947865 -615.3686926 606.98913378 -613.56933594 605.50537109 C-612.59480469 604.68810547 -611.62027344 603.87083984 -610.61621094 603.02880859 C-607.81933594 601.13037109 -607.81933594 601.13037109 -603.81933594 601.13037109 C-603.48933594 599.81037109 -603.15933594 598.49037109 -602.81933594 597.13037109 C-601.49933594 596.80037109 -600.17933594 596.47037109 -598.81933594 596.13037109 C-598.81933594 595.47037109 -598.81933594 594.81037109 -598.81933594 594.13037109 C-597.88992188 593.67146484 -596.96050781 593.21255859 -596.00292969 592.73974609 C-594.75399794 592.12042576 -593.50531578 591.50060192 -592.25683594 590.88037109 C-591.61512451 590.56189209 -590.97341309 590.24341309 -590.31225586 589.9152832 C-587.02028503 588.27034286 -583.79000862 586.58640753 -580.63183594 584.69287109 C-577.81933594 583.13037109 -577.81933594 583.13037109 -574.81933594 583.13037109 C-574.81933594 582.47037109 -574.81933594 581.81037109 -574.81933594 581.13037109 C-573.21677486 580.62524865 -571.61221802 580.12645483 -570.00683594 579.63037109 C-568.66685547 579.21271484 -568.66685547 579.21271484 -567.29980469 578.78662109 C-564.81933594 578.13037109 -564.81933594 578.13037109 -561.81933594 578.13037109 C-561.81933594 577.47037109 -561.81933594 576.81037109 -561.81933594 576.13037109 C-548.18607853 572.68617975 -548.18607853 572.68617975 -541.81933594 573.13037109 C-541.81933594 572.47037109 -541.81933594 571.81037109 -541.81933594 571.13037109 C-535.89217625 570.272375 -530.15141686 569.98329315 -524.16699219 569.99755859 C-523.26742294 569.99660187 -522.3678537 569.99564514 -521.44102478 569.99465942 C-519.54930552 569.99398266 -517.65758387 569.99580157 -515.76586914 570 C-512.89366357 570.00534907 -510.0216148 570.00004102 -507.14941406 569.99365234 C-505.30110643 569.99431334 -503.45279889 569.99559494 -501.60449219 569.99755859 C-500.75734146 569.99553436 -499.91019073 569.99351013 -499.03736877 569.99142456 C-491.68963759 570.01986522 -484.6189369 570.13991114 -477.81933594 573.13037109 C-475.70198674 573.64228717 -473.57609789 574.11974536 -471.44433594 574.56787109 C-466.57636969 575.65086926 -462.29297339 576.94557141 -457.81933594 579.13037109 C-457.81933594 579.79037109 -457.81933594 580.45037109 -457.81933594 581.13037109 C-457.10390625 581.07880859 -456.38847656 581.02724609 -455.65136719 580.97412109 C-452.34758813 581.15639856 -450.41257516 582.08064351 -447.50683594 583.63037109 C-446.62382812 584.09443359 -445.74082031 584.55849609 -444.83105469 585.03662109 C-443.83525391 585.57802734 -443.83525391 585.57802734 -442.81933594 586.13037109 C-442.81933594 586.79037109 -442.81933594 587.45037109 -442.81933594 588.13037109 C-442.11421875 588.21416016 -441.40910156 588.29794922 -440.68261719 588.38427734 C-437.14872779 589.30511346 -434.93525382 590.89997941 -432.00683594 593.06787109 C-431.03101563 593.77814453 -430.05519531 594.48841797 -429.04980469 595.22021484 C-428.31375 595.85056641 -427.57769531 596.48091797 -426.81933594 597.13037109 C-426.81933594 597.79037109 -426.81933594 598.45037109 -426.81933594 599.13037109 C-426.15933594 599.13037109 -425.49933594 599.13037109 -424.81933594 599.13037109 C-424.81933594 599.79037109 -424.81933594 600.45037109 -424.81933594 601.13037109 C-423.98402344 601.22318359 -423.98402344 601.22318359 -423.13183594 601.31787109 C-419.82865552 602.478448 -418.10038861 604.53250555 -415.81933594 607.13037109 C-415.81933594 607.79037109 -415.81933594 608.45037109 -415.81933594 609.13037109 C-415.17996094 609.39849609 -414.54058594 609.66662109 -413.88183594 609.94287109 C-411.81933594 611.13037109 -411.81933594 611.13037109 -410.81933594 614.13037109 C-410.15933594 614.13037109 -409.49933594 614.13037109 -408.81933594 614.13037109 C-407.8058193 615.78885287 -406.80812799 617.4570307 -405.81933594 619.13037109 C-405.17996094 619.74912109 -404.54058594 620.36787109 -403.88183594 621.00537109 C-401.03822923 623.9351477 -397.81933594 627.91182436 -397.81933594 632.13037109 C-397.15933594 632.13037109 -396.49933594 632.13037109 -395.81933594 632.13037109 C-395.57699219 632.68724609 -395.33464844 633.24412109 -395.08496094 633.81787109 C-394.74980469 634.58099609 -394.41464844 635.34412109 -394.06933594 636.13037109 C-393.70839844 636.95279297 -393.34746094 637.77521484 -392.97558594 638.62255859 C-391.92730938 640.89618544 -390.77348918 643.06209198 -389.56933594 645.25537109 C-387.60696365 649.07279843 -387.46537993 651.88289902 -387.81933594 656.13037109 C-387.15933594 656.13037109 -386.49933594 656.13037109 -385.81933594 656.13037109 C-385.48933594 659.43037109 -385.15933594 662.73037109 -384.81933594 666.13037109 C-384.15933594 666.13037109 -383.49933594 666.13037109 -382.81933594 666.13037109 C-380.94755102 674.49690859 -380.51368714 682.51186834 -380.56933594 691.06787109 C-380.56160156 692.25316406 -380.55386719 693.43845703 -380.54589844 694.65966797 C-380.56274908 702.33934672 -381.3045521 709.60217149 -382.81933594 717.13037109 C-383.47933594 717.13037109 -384.13933594 717.13037109 -384.81933594 717.13037109 C-385.14933594 720.10037109 -385.47933594 723.07037109 -385.81933594 726.13037109 C-386.47933594 726.13037109 -387.13933594 726.13037109 -387.81933594 726.13037109 C-387.72652344 727.67724609 -387.72652344 727.67724609 -387.63183594 729.25537109 C-387.83069189 733.36506083 -388.76401396 735.61919606 -390.81933594 739.13037109 C-391.47933594 739.13037109 -392.13933594 739.13037109 -392.81933594 739.13037109 C-392.90183594 739.99662109 -392.98433594 740.86287109 -393.06933594 741.75537109 C-393.93765651 745.66281366 -395.34722305 748.00387538 -397.81933594 751.13037109 C-398.80933594 751.46037109 -399.79933594 751.79037109 -400.81933594 752.13037109 C-400.94308594 752.89349609 -401.06683594 753.65662109 -401.19433594 754.44287109 C-401.81933594 757.13037109 -401.81933594 757.13037109 -403.81933594 760.13037109 C-404.47933594 760.13037109 -405.13933594 760.13037109 -405.81933594 760.13037109 C-406.14933594 761.12037109 -406.47933594 762.11037109 -406.81933594 763.13037109 C-407.47933594 763.13037109 -408.13933594 763.13037109 -408.81933594 763.13037109 C-408.81933594 763.79037109 -408.81933594 764.45037109 -408.81933594 765.13037109 C-409.47933594 765.13037109 -410.13933594 765.13037109 -410.81933594 765.13037109 C-411.14933594 766.12037109 -411.47933594 767.11037109 -411.81933594 768.13037109 C-412.47933594 768.13037109 -413.13933594 768.13037109 -413.81933594 768.13037109 C-413.81933594 768.79037109 -413.81933594 769.45037109 -413.81933594 770.13037109 C-415.72575854 771.64581036 -417.61664485 773.02284566 -419.63183594 774.38037109 C-420.22061523 774.78078613 -420.80939453 775.18120117 -421.41601562 775.59375 C-428.63402226 780.43490631 -435.99928877 784.97492604 -444.39819336 787.42407227 C-446.0037987 787.89246152 -447.60241149 788.38556946 -449.19262695 788.90380859 C-456.63437455 791.1903119 -463.50646184 791.55227784 -471.25683594 791.44287109 C-472.39443359 791.44609375 -473.53203125 791.44931641 -474.70410156 791.45263672 C-482.25171428 791.40527577 -489.41858625 790.59975508 -496.81933594 789.13037109 C-497.94433594 785.38037109 -497.94433594 785.38037109 -496.81933594 783.13037109 C-494.50933594 783.13037109 -492.19933594 783.13037109 -489.81933594 783.13037109 C-489.81933594 782.47037109 -489.81933594 781.81037109 -489.81933594 781.13037109 C-488.09410894 780.45357451 -486.36394655 779.78935109 -484.63183594 779.13037109 C-483.66890625 778.75912109 -482.70597656 778.38787109 -481.71386719 778.00537109 C-478.89751236 777.15400337 -476.73769155 776.95964462 -473.81933594 777.13037109 C-473.81933594 776.47037109 -473.81933594 775.81037109 -473.81933594 775.13037109 C-473.15933594 775.13037109 -472.49933594 775.13037109 -471.81933594 775.13037109 C-471.81933594 774.47037109 -471.81933594 773.81037109 -471.81933594 773.13037109 C-469.83933594 772.80037109 -467.85933594 772.47037109 -465.81933594 772.13037109 C-465.81933594 771.47037109 -465.81933594 770.81037109 -465.81933594 770.13037109 C-461.43472055 767.13037109 -461.43472055 767.13037109 -458.81933594 767.13037109 C-458.81933594 766.47037109 -458.81933594 765.81037109 -458.81933594 765.13037109 C-457.15266927 764.13037109 -455.4860026 763.13037109 -453.81933594 762.13037109 C-450.47098659 759.02702292 -447.65444401 755.69711995 -444.81933594 752.13037109 C-443.4860026 750.79703776 -442.15266927 749.46370443 -440.81933594 748.13037109 C-440.48933594 747.47037109 -440.15933594 746.81037109 -439.81933594 746.13037109 C-439.15933594 746.13037109 -438.49933594 746.13037109 -437.81933594 746.13037109 C-437.48933594 744.81037109 -437.15933594 743.49037109 -436.81933594 742.13037109 C-436.15933594 742.13037109 -435.49933594 742.13037109 -434.81933594 742.13037109 C-434.81933594 740.81037109 -434.81933594 739.49037109 -434.81933594 738.13037109 C-434.15933594 738.13037109 -433.49933594 738.13037109 -432.81933594 738.13037109 C-432.48933594 735.82037109 -432.15933594 733.51037109 -431.81933594 731.13037109 C-431.15933594 731.13037109 -430.49933594 731.13037109 -429.81933594 731.13037109 C-429.81933594 730.14037109 -429.81933594 729.15037109 -429.81933594 728.13037109 C-429.15933594 728.13037109 -428.49933594 728.13037109 -427.81933594 728.13037109 C-427.8309375 727.53611328 -427.84253906 726.94185547 -427.85449219 726.32958984 C-427.9247989 719.87141597 -427.50284509 713.55047496 -426.81933594 707.13037109 C-426.15933594 707.13037109 -425.49933594 707.13037109 -424.81933594 707.13037109 C-424.81933594 705.15037109 -424.81933594 703.17037109 -424.81933594 701.13037109 C-425.47933594 701.13037109 -426.13933594 701.13037109 -426.81933594 701.13037109 C-427.14933594 694.20037109 -427.47933594 687.27037109 -427.81933594 680.13037109 C-428.47933594 680.13037109 -429.13933594 680.13037109 -429.81933594 680.13037109 C-429.81933594 679.14037109 -429.81933594 678.15037109 -429.81933594 677.13037109 C-430.47933594 677.13037109 -431.13933594 677.13037109 -431.81933594 677.13037109 C-432.14933594 674.82037109 -432.47933594 672.51037109 -432.81933594 670.13037109 C-433.47933594 670.13037109 -434.13933594 670.13037109 -434.81933594 670.13037109 C-437.81933594 664.38037109 -437.81933594 664.38037109 -437.81933594 662.13037109 C-438.47933594 662.13037109 -439.13933594 662.13037109 -439.81933594 662.13037109 C-440.81933594 660.46370443 -441.81933594 658.79703776 -442.81933594 657.13037109 C-445.28715068 654.46772887 -447.76559615 652.17216871 -450.63183594 649.94287109 C-451.35371094 649.34474609 -452.07558594 648.74662109 -452.81933594 648.13037109 C-452.81933594 647.47037109 -452.81933594 646.81037109 -452.81933594 646.13037109 C-453.80933594 646.13037109 -454.79933594 646.13037109 -455.81933594 646.13037109 C-455.81933594 645.47037109 -455.81933594 644.81037109 -455.81933594 644.13037109 C-458.6995287 642.66385093 -461.61242109 641.30989235 -464.56933594 640.00537109 C-465.36855469 639.65216797 -466.16777344 639.29896484 -466.99121094 638.93505859 C-467.59449219 638.66951172 -468.19777344 638.40396484 -468.81933594 638.13037109 C-468.81933594 637.47037109 -468.81933594 636.81037109 -468.81933594 636.13037109 C-469.99496094 636.02724609 -471.17058594 635.92412109 -472.38183594 635.81787109 C-475.36093048 635.55654701 -477.28717974 634.91761221 -480.05761719 633.65771484 C-484.1165222 631.84534376 -488.04907906 631.40141014 -492.44433594 631.00537109 C-500.44772792 630.20783028 -500.44772792 630.20783028 -503.78027344 629.51318359 C-504.45316406 629.38685547 -505.12605469 629.26052734 -505.81933594 629.13037109 C-506.14933594 629.46037109 -506.47933594 629.79037109 -506.81933594 630.13037109 C-508.14942568 630.32038391 -509.48779991 630.45333875 -510.82714844 630.56005859 C-512.06078125 630.67027344 -512.06078125 630.67027344 -513.31933594 630.78271484 C-515.04541761 630.92912356 -516.77198681 631.06991268 -518.49902344 631.20458984 C-523.90769443 631.70010473 -527.90717564 632.84126796 -532.81933594 635.13037109 C-535.51248706 635.69666772 -538.06734991 635.88896881 -540.81933594 636.13037109 C-540.81933594 636.79037109 -540.81933594 637.45037109 -540.81933594 638.13037109 C-542.5673574 638.94711905 -544.31783783 639.75860561 -546.06933594 640.56787109 C-547.04386719 641.02033203 -548.01839844 641.47279297 -549.02246094 641.93896484 C-551.31185288 642.91419465 -553.3931234 643.6277985 -555.81933594 644.13037109 C-555.81933594 644.79037109 -555.81933594 645.45037109 -555.81933594 646.13037109 C-558.72482476 648.17206594 -560.22075639 649.13037109 -563.81933594 649.13037109 C-564.14933594 650.45037109 -564.47933594 651.77037109 -564.81933594 653.13037109 C-565.43808594 653.21287109 -566.05683594 653.29537109 -566.69433594 653.38037109 C-568.96324398 653.91634953 -568.96324398 653.91634953 -569.81933594 655.94287109 C-570.14933594 656.66474609 -570.47933594 657.38662109 -570.81933594 658.13037109 C-572.81933594 660.38037109 -572.81933594 660.38037109 -574.81933594 662.13037109 C-575.47933594 662.13037109 -576.13933594 662.13037109 -576.81933594 662.13037109 C-577.00496094 663.02755859 -577.00496094 663.02755859 -577.19433594 663.94287109 C-577.81933594 666.13037109 -577.81933594 666.13037109 -579.81933594 669.13037109 C-580.47933594 669.13037109 -581.13933594 669.13037109 -581.81933594 669.13037109 C-582.00496094 669.99662109 -582.00496094 669.99662109 -582.19433594 670.88037109 C-582.82582418 673.15372876 -583.70791785 675.05572399 -584.81933594 677.13037109 C-585.47933594 677.13037109 -586.13933594 677.13037109 -586.81933594 677.13037109 C-587.31433594 679.60537109 -587.31433594 679.60537109 -587.81933594 682.13037109 C-588.47933594 682.13037109 -589.13933594 682.13037109 -589.81933594 682.13037109 C-589.94308594 683.01724609 -590.06683594 683.90412109 -590.19433594 684.81787109 C-590.7634633 687.83424612 -591.58548029 690.33363164 -592.81933594 693.13037109 C-593.47933594 693.13037109 -594.13933594 693.13037109 -594.81933594 693.13037109 C-594.86832031 693.82001953 -594.91730469 694.50966797 -594.96777344 695.22021484 C-595.45661645 701.36446579 -596.34759193 707.1452788 -597.81933594 713.13037109 C-598.47933594 713.13037109 -599.13933594 713.13037109 -599.81933594 713.13037109 C-599.81933594 725.67037109 -599.81933594 738.21037109 -599.81933594 751.13037109 C-599.15933594 751.13037109 -598.49933594 751.13037109 -597.81933594 751.13037109 C-597.31510037 753.87965551 -596.81580168 756.62968253 -596.31933594 759.38037109 C-596.17625 760.15767578 -596.03316406 760.93498047 -595.88574219 761.73583984 C-595.75039063 762.48994141 -595.61503906 763.24404297 -595.47558594 764.02099609 C-595.34990234 764.71225586 -595.22421875 765.40351562 -595.09472656 766.11572266 C-594.81933594 768.13037109 -594.81933594 768.13037109 -594.81933594 772.13037109 C-594.15933594 772.13037109 -593.49933594 772.13037109 -592.81933594 772.13037109 C-589.37514459 781.54039387 -589.37514459 781.54039387 -589.81933594 786.13037109 C-589.15933594 786.13037109 -588.49933594 786.13037109 -587.81933594 786.13037109 C-587.57183594 786.81099609 -587.32433594 787.49162109 -587.06933594 788.19287109 C-586.06533403 790.55227558 -585.00306496 792.56951518 -583.69433594 794.75537109 C-581.81933594 798.13037109 -581.81933594 798.13037109 -581.81933594 801.13037109 C-581.15933594 801.13037109 -580.49933594 801.13037109 -579.81933594 801.13037109 C-577.77764109 804.03585992 -576.81933594 805.53179155 -576.81933594 809.13037109 C-575.82933594 809.46037109 -574.83933594 809.79037109 -573.81933594 810.13037109 C-572.43261719 811.68896484 -572.43261719 811.68896484 -571.13183594 813.56787109 C-570.69484375 814.18533203 -570.25785156 814.80279297 -569.80761719 815.43896484 C-568.81933594 817.13037109 -568.81933594 817.13037109 -568.81933594 819.13037109 C-568.15933594 819.13037109 -567.49933594 819.13037109 -566.81933594 819.13037109 C-566.81933594 819.79037109 -566.81933594 820.45037109 -566.81933594 821.13037109 C-565.82933594 821.46037109 -564.83933594 821.79037109 -563.81933594 822.13037109 C-563.81933594 822.79037109 -563.81933594 823.45037109 -563.81933594 824.13037109 C-563.15933594 824.13037109 -562.49933594 824.13037109 -561.81933594 824.13037109 C-560.19433594 825.50537109 -560.19433594 825.50537109 -558.81933594 827.13037109 C-558.81933594 827.79037109 -558.81933594 828.45037109 -558.81933594 829.13037109 C-557.82933594 829.46037109 -556.83933594 829.79037109 -555.81933594 830.13037109 C-555.81933594 830.79037109 -555.81933594 831.45037109 -555.81933594 832.13037109 C-555.15933594 832.13037109 -554.49933594 832.13037109 -553.81933594 832.13037109 C-553.81933594 832.79037109 -553.81933594 833.45037109 -553.81933594 834.13037109 C-552.95308594 834.53449219 -552.95308594 834.53449219 -552.06933594 834.94677734 C-549.78775554 836.1469837 -547.86244983 837.49962156 -545.81933594 839.06787109 C-545.15933594 839.57189453 -544.49933594 840.07591797 -543.81933594 840.59521484 C-542.82933594 841.35511719 -542.82933594 841.35511719 -541.81933594 842.13037109 C-541.07683594 842.64728516 -540.33433594 843.16419922 -539.56933594 843.69677734 C-538.99183594 844.16986328 -538.41433594 844.64294922 -537.81933594 845.13037109 C-537.81933594 845.79037109 -537.81933594 846.45037109 -537.81933594 847.13037109 C-536.97371094 847.37787109 -536.12808594 847.62537109 -535.25683594 847.88037109 C-531.4350612 849.27010736 -528.30065531 851.04157947 -524.81933594 853.13037109 C-524.81933594 853.79037109 -524.81933594 854.45037109 -524.81933594 855.13037109 C-523.78808594 855.21287109 -522.75683594 855.29537109 -521.69433594 855.38037109 C-517.4426868 856.20327093 -515.34837925 857.70415382 -511.81933594 860.13037109 C-510.2108724 860.64507942 -508.5983474 861.15436823 -506.95996094 861.56396484 C-504.08130868 862.32565203 -501.27134666 863.25834978 -498.44433594 864.19287109 C-497.40535156 864.53447266 -496.36636719 864.87607422 -495.29589844 865.22802734 C-492.81933594 866.13037109 -492.81933594 866.13037109 -491.81933594 867.13037109 C-489.1727757 867.50552027 -486.53753869 867.8365682 -483.88183594 868.13037109 C-476.08525773 868.9974102 -476.08525773 868.9974102 -473.81933594 870.13037109 C-470.86220946 870.24200679 -467.92941057 870.29450488 -464.97167969 870.29833984 C-464.0858168 870.30166824 -463.19995392 870.30499664 -462.2872467 870.3084259 C-460.40675374 870.31349662 -458.52625175 870.31583418 -456.64575195 870.31567383 C-453.79265053 870.31784385 -450.93994618 870.33595202 -448.08691406 870.35498047 C-446.25683725 870.3579178 -444.42675861 870.35990032 -442.59667969 870.36083984 C-441.75258041 870.36802536 -440.90848114 870.37521088 -440.0388031 870.38261414 C-435.06026662 870.36379047 -430.55481722 869.8084651 -425.72320557 868.59333801 C-423.36548801 868.02000819 -421.05001688 867.79239327 -418.63183594 867.63037109 C-414.75841305 867.30007922 -411.49170837 866.44193268 -407.81933594 865.13037109 C-406.49933594 865.13037109 -405.17933594 865.13037109 -403.81933594 865.13037109 C-403.81933594 864.47037109 -403.81933594 863.81037109 -403.81933594 863.13037109 C-402.07116735 862.62400502 -400.32071331 862.12552491 -398.56933594 861.63037109 C-397.59480469 861.35193359 -396.62027344 861.07349609 -395.61621094 860.78662109 C-392.81933594 860.13037109 -392.81933594 860.13037109 -388.81933594 860.13037109 C-388.81933594 859.47037109 -388.81933594 858.81037109 -388.81933594 858.13037109 C-382.31933594 855.13037109 -382.31933594 855.13037109 -377.81933594 855.13037109 C-377.81933594 854.47037109 -377.81933594 853.81037109 -377.81933594 853.13037109 C-375.69650924 852.12576578 -373.57100573 851.12681507 -371.44433594 850.13037109 C-369.66929687 849.29505859 -369.66929687 849.29505859 -367.85839844 848.44287109 C-364.81933594 847.13037109 -364.81933594 847.13037109 -362.81933594 847.13037109 C-362.81933594 846.47037109 -362.81933594 845.81037109 -362.81933594 845.13037109 C-361.13964844 843.84130859 -361.13964844 843.84130859 -358.94433594 842.50537109 C-357.86539063 841.83634766 -357.86539063 841.83634766 -356.76464844 841.15380859 C-354.81933594 840.13037109 -354.81933594 840.13037109 -352.81933594 840.13037109 C-352.48933594 839.14037109 -352.15933594 838.15037109 -351.81933594 837.13037109 C-350.82933594 837.13037109 -349.83933594 837.13037109 -348.81933594 837.13037109 C-348.81933594 836.47037109 -348.81933594 835.81037109 -348.81933594 835.13037109 C-347.49933594 834.80037109 -346.17933594 834.47037109 -344.81933594 834.13037109 C-344.81933594 833.47037109 -344.81933594 832.81037109 -344.81933594 832.13037109 C-341.35779748 829.13037109 -341.35779748 829.13037109 -338.81933594 829.13037109 C-338.81933594 828.47037109 -338.81933594 827.81037109 -338.81933594 827.13037109 C-338.15933594 827.13037109 -337.49933594 827.13037109 -336.81933594 827.13037109 C-336.48933594 826.14037109 -336.15933594 825.15037109 -335.81933594 824.13037109 C-335.15933594 824.13037109 -334.49933594 824.13037109 -333.81933594 824.13037109 C-333.81933594 823.47037109 -333.81933594 822.81037109 -333.81933594 822.13037109 C-329.51701036 817.36292923 -329.51701036 817.36292923 -325.81933594 816.13037109 C-325.81933594 815.47037109 -325.81933594 814.81037109 -325.81933594 814.13037109 C-325.15933594 814.13037109 -324.49933594 814.13037109 -323.81933594 814.13037109 C-323.55121094 813.32599609 -323.28308594 812.52162109 -323.00683594 811.69287109 C-322.61496094 810.84724609 -322.22308594 810.00162109 -321.81933594 809.13037109 C-320.82933594 808.80037109 -319.83933594 808.47037109 -318.81933594 808.13037109 C-317.64980178 805.70654033 -317.64980178 805.70654033 -316.81933594 803.13037109 C-316.48933594 802.47037109 -316.15933594 801.81037109 -315.81933594 801.13037109 C-315.15933594 801.13037109 -314.49933594 801.13037109 -313.81933594 801.13037109 C-313.44808594 800.35693359 -313.44808594 800.35693359 -313.06933594 799.56787109 C-311.42351978 796.35852958 -309.62172634 793.25451446 -307.81933594 790.13037109 C-307.15933594 790.13037109 -306.49933594 790.13037109 -305.81933594 790.13037109 C-305.69558594 789.24349609 -305.57183594 788.35662109 -305.44433594 787.44287109 C-304.87520857 784.42649607 -304.05319158 781.92711055 -302.81933594 779.13037109 C-302.15933594 779.13037109 -301.49933594 779.13037109 -300.81933594 779.13037109 C-300.66078125 778.54771484 -300.50222656 777.96505859 -300.33886719 777.36474609 C-298.95904456 772.51630858 -297.3533553 767.93282138 -295.31933594 763.31787109 C-292.63636678 757.08462854 -291.1367359 750.77092376 -289.81933594 744.13037109 C-289.15933594 744.13037109 -288.49933594 744.13037109 -287.81933594 744.13037109 C-287.75875 743.34791016 -287.69816406 742.56544922 -287.63574219 741.75927734 C-287.51005859 740.24140625 -287.51005859 740.24140625 -287.38183594 738.69287109 C-287.300625 737.68353516 -287.21941406 736.67419922 -287.13574219 735.63427734 C-286.81933594 733.13037109 -286.81933594 733.13037109 -285.81933594 732.13037109 C-285.60774976 729.14759376 -285.44291889 726.17945908 -285.31933594 723.19287109 C-285.25053171 721.5377471 -285.17779887 719.88278038 -285.10058594 718.22802734 C-285.07029297 717.49076416 -285.04 716.75350098 -285.00878906 715.99389648 C-284.81933594 714.13037109 -284.81933594 714.13037109 -283.81933594 712.13037109 C-283.71883355 709.7258616 -283.67901682 707.35012206 -283.68346405 704.94521046 C-283.68092143 704.19269368 -283.67837881 703.4401769 -283.67575914 702.66485658 C-283.668379 700.11687516 -283.66816269 697.56894172 -283.66784668 695.02095032 C-283.66399962 693.18612789 -283.65971269 691.35130634 -283.65502119 689.51648587 C-283.64334229 684.45346088 -283.63788781 679.39044491 -283.63338637 674.32740915 C-283.62745187 668.87447526 -283.61578016 663.42155347 -283.60475159 657.96862793 C-283.58637297 648.51069265 -283.57153856 639.05275711 -283.55897522 629.59481239 C-283.54069843 615.90373783 -283.51603165 602.21268044 -283.48960131 588.52161946 C-283.44676613 566.2892396 -283.40765445 544.05685465 -283.37158203 521.82446289 C-283.37050083 521.15879537 -283.36941964 520.49312784 -283.36830568 519.80728857 C-283.35296671 510.36128588 -283.33776334 500.91528297 -283.32259119 491.46928 C-283.3042041 480.02322099 -283.28573628 468.57716211 -283.26708984 457.13110352 C-283.26601038 456.46776953 -283.26493091 455.80443553 -283.26381873 455.12100051 C-283.22668882 432.3200231 -283.1857291 409.51905411 -283.14178705 386.71808881 C-283.11566637 373.06764568 -283.09299847 359.41720508 -283.07480347 345.76674905 C-283.06210615 336.40314883 -283.04596869 327.0395586 -283.02715433 317.67596868 C-283.01642998 312.2767608 -283.00729726 306.87756251 -283.00245857 301.47834587 C-282.99799699 296.52774513 -282.98899775 291.5771734 -282.97651535 286.62658658 C-282.97280615 284.84308312 -282.9707203 283.05957531 -282.97049516 281.27606801 C-282.96814868 270.84780701 -282.66572838 260.5274895 -281.81933594 250.13037109 C-281.15933594 250.13037109 -280.49933594 250.13037109 -279.81933594 250.13037109 C-279.87154297 249.30472656 -279.87154297 249.30472656 -279.92480469 248.46240234 C-280.25783606 238.23358159 -278.401428 228.20218233 -276.81933594 218.13037109 C-276.15933594 218.13037109 -275.49933594 218.13037109 -274.81933594 218.13037109 C-274.88121094 216.58349609 -274.88121094 216.58349609 -274.94433594 215.00537109 C-274.82147931 211.19681555 -274.07845733 208.68553737 -272.81933594 205.13037109 C-272.69558594 204.05787109 -272.57183594 202.98537109 -272.44433594 201.88037109 C-271.78055181 197.89766631 -270.50039503 194.73758808 -268.94042969 191.04052734 C-266.82058256 185.53778827 -265.35990156 179.8173527 -263.81933594 174.13037109 C-263.15933594 174.13037109 -262.49933594 174.13037109 -261.81933594 174.13037109 C-261.75746094 173.36724609 -261.69558594 172.60412109 -261.63183594 171.81787109 C-260.47445803 166.56515596 -258.14735599 161.9582208 -255.81933594 157.13037109 C-255.15933594 157.13037109 -254.49933594 157.13037109 -253.81933594 157.13037109 C-253.81933594 156.14037109 -253.81933594 155.15037109 -253.81933594 154.13037109 C-253.15933594 154.13037109 -252.49933594 154.13037109 -251.81933594 154.13037109 C-251.75746094 153.16099609 -251.69558594 152.19162109 -251.63183594 151.19287109 C-250.96307795 146.24811507 -248.39342898 142.31920885 -245.81933594 138.13037109 C-245.15933594 138.13037109 -244.49933594 138.13037109 -243.81933594 138.13037109 C-243.73683594 137.34662109 -243.65433594 136.56287109 -243.56933594 135.75537109 C-243.32183594 134.88912109 -243.07433594 134.02287109 -242.81933594 133.13037109 C-242.15933594 132.82099609 -241.49933594 132.51162109 -240.81933594 132.19287109 C-240.15933594 131.84224609 -239.49933594 131.49162109 -238.81933594 131.13037109 C-238.00349026 128.07128697 -238.00349026 128.07128697 -237.81933594 125.13037109 C-237.15933594 125.13037109 -236.49933594 125.13037109 -235.81933594 125.13037109 C-235.50996094 124.14037109 -235.50996094 124.14037109 -235.19433594 123.13037109 C-233.32809342 119.05856923 -230.84372067 115.44240111 -227.81933594 112.13037109 C-227.15933594 112.13037109 -226.49933594 112.13037109 -225.81933594 112.13037109 C-225.48933594 110.48037109 -225.15933594 108.83037109 -224.81933594 107.13037109 C-224.15933594 107.13037109 -223.49933594 107.13037109 -222.81933594 107.13037109 C-222.48933594 106.14037109 -222.15933594 105.15037109 -221.81933594 104.13037109 C-221.15933594 104.13037109 -220.49933594 104.13037109 -219.81933594 104.13037109 C-219.69558594 103.53224609 -219.57183594 102.93412109 -219.44433594 102.31787109 C-218.81933594 100.13037109 -218.81933594 100.13037109 -216.81933594 97.13037109 C-216.15933594 97.13037109 -215.49933594 97.13037109 -214.81933594 97.13037109 C-214.81933594 96.47037109 -214.81933594 95.81037109 -214.81933594 95.13037109 C-213.44433594 93.50537109 -213.44433594 93.50537109 -211.81933594 92.13037109 C-211.15933594 92.13037109 -210.49933594 92.13037109 -209.81933594 92.13037109 C-209.81933594 91.14037109 -209.81933594 90.15037109 -209.81933594 89.13037109 C-209.15933594 89.13037109 -208.49933594 89.13037109 -207.81933594 89.13037109 C-207.48933594 88.14037109 -207.15933594 87.15037109 -206.81933594 86.13037109 C-206.15933594 86.13037109 -205.49933594 86.13037109 -204.81933594 86.13037109 C-204.55121094 85.49099609 -204.28308594 84.85162109 -204.00683594 84.19287109 C-202.81933594 82.13037109 -202.81933594 82.13037109 -199.81933594 81.13037109 C-199.48933594 80.14037109 -199.15933594 79.15037109 -198.81933594 78.13037109 C-198.15933594 78.13037109 -197.49933594 78.13037109 -196.81933594 78.13037109 C-196.81933594 77.47037109 -196.81933594 76.81037109 -196.81933594 76.13037109 C-196.15933594 76.13037109 -195.49933594 76.13037109 -194.81933594 76.13037109 C-194.48933594 75.14037109 -194.15933594 74.15037109 -193.81933594 73.13037109 C-192.82933594 73.13037109 -191.83933594 73.13037109 -190.81933594 73.13037109 C-190.81933594 72.47037109 -190.81933594 71.81037109 -190.81933594 71.13037109 C-190.15933594 71.13037109 -189.49933594 71.13037109 -188.81933594 71.13037109 C-188.81933594 70.47037109 -188.81933594 69.81037109 -188.81933594 69.13037109 C-187.13284204 67.51947865 -185.3686926 65.98913378 -183.56933594 64.50537109 C-182.59480469 63.68810547 -181.62027344 62.87083984 -180.61621094 62.02880859 C-177.81933594 60.13037109 -177.81933594 60.13037109 -173.81933594 60.13037109 C-173.48933594 58.81037109 -173.15933594 57.49037109 -172.81933594 56.13037109 C-171.49933594 55.80037109 -170.17933594 55.47037109 -168.81933594 55.13037109 C-168.81933594 54.47037109 -168.81933594 53.81037109 -168.81933594 53.13037109 C-167.13808582 51.93494632 -165.39685511 50.82324267 -163.63183594 49.75537109 C-159.79465488 47.42326908 -156.30303252 44.96051938 -152.81933594 42.13037109 C-151.46295626 41.18637059 -150.08919926 40.26651956 -148.69433594 39.38037109 C-147.70046875 38.73841797 -147.70046875 38.73841797 -146.68652344 38.08349609 C-144.81933594 37.13037109 -144.81933594 37.13037109 -141.81933594 37.13037109 C-141.81933594 36.47037109 -141.81933594 35.81037109 -141.81933594 35.13037109 C-137.36433594 33.64537109 -137.36433594 33.64537109 -132.81933594 32.13037109 C-132.81933594 31.47037109 -132.81933594 30.81037109 -132.81933594 30.13037109 C-130.83933594 29.80037109 -128.85933594 29.47037109 -126.81933594 29.13037109 C-126.81933594 28.47037109 -126.81933594 27.81037109 -126.81933594 27.13037109 C-125.16933594 27.13037109 -123.51933594 27.13037109 -121.81933594 27.13037109 C-121.81933594 26.47037109 -121.81933594 25.81037109 -121.81933594 25.13037109 C-115.91555943 22.25524589 -110.28645781 20.29231261 -103.81933594 19.13037109 C-103.81933594 18.47037109 -103.81933594 17.81037109 -103.81933594 17.13037109 C-96.2104248 14.54230608 -88.83484463 12.11186195 -80.81933594 11.13037109 C-80.81933594 10.47037109 -80.81933594 9.81037109 -80.81933594 9.13037109 C-78.25783966 8.6246938 -75.69534129 8.12566978 -73.13183594 7.63037109 C-72.41060547 7.48728516 -71.689375 7.34419922 -70.94628906 7.19677734 C-67.18092235 6.47465222 -63.67459781 5.94787349 -59.81933594 6.13037109 C-59.81933594 5.47037109 -59.81933594 4.81037109 -59.81933594 4.13037109 C-51.7117047 2.15016623 -43.81692845 0.88550006 -35.47949219 0.54052734 C-34.58342255 0.50101959 -33.68735291 0.46151184 -32.76412964 0.42080688 C-21.84620284 -0.0127419 -10.9249573 -0.01955721 0 0 Z M176.18066406 147.13037109 C176.18066406 147.79037109 176.18066406 148.45037109 176.18066406 149.13037109 C175.33503906 149.06849609 174.48941406 149.00662109 173.61816406 148.94287109 C169.44446563 149.17052737 166.9263346 150.33244924 163.18066406 152.13037109 C163.18066406 152.79037109 163.18066406 153.45037109 163.18066406 154.13037109 C162.52066406 154.13037109 161.86066406 154.13037109 161.18066406 154.13037109 C156.67448328 161.18468982 153.99005478 166.67553809 155.18066406 175.13037109 C155.48970389 176.4695437 155.81546976 177.80540996 156.18066406 179.13037109 C156.84066406 179.13037109 157.50066406 179.13037109 158.18066406 179.13037109 C158.58285156 180.33693359 158.58285156 180.33693359 158.99316406 181.56787109 C159.38503906 182.41349609 159.77691406 183.25912109 160.18066406 184.13037109 C161.17066406 184.46037109 162.16066406 184.79037109 163.18066406 185.13037109 C163.18066406 185.79037109 163.18066406 186.45037109 163.18066406 187.13037109 C164.21635001 188.83772411 164.21635001 188.83772411 166.18066406 190.13037109 C168.50341583 190.53084554 170.83805763 190.87008149 173.18066406 191.13037109 C173.67566406 191.62537109 173.67566406 191.62537109 174.18066406 192.13037109 C179.35513276 192.44083922 183.3279734 191.71492315 188.18066406 190.13037109 C188.18066406 189.47037109 188.18066406 188.81037109 188.18066406 188.13037109 C190.16066406 187.63537109 190.16066406 187.63537109 192.18066406 187.13037109 C192.18066406 186.47037109 192.18066406 185.81037109 192.18066406 185.13037109 C192.84066406 185.13037109 193.50066406 185.13037109 194.18066406 185.13037109 C194.18066406 184.47037109 194.18066406 183.81037109 194.18066406 183.13037109 C195.17066406 182.80037109 196.16066406 182.47037109 197.18066406 182.13037109 C200.02483162 176.591729 199.71526705 170.19477376 199.18066406 164.13037109 C197.04760596 158.06799544 193.37137946 153.30396863 187.68066406 150.25537109 C184.55805522 149.2516754 182.41323302 148.83650119 179.18066406 149.13037109 C179.18066406 148.47037109 179.18066406 147.81037109 179.18066406 147.13037109 C178.19066406 147.13037109 177.20066406 147.13037109 176.18066406 147.13037109 Z " fill="#FFFFFF" transform="translate(691.8193359375,27.86962890625)"/>
<path d="M0 0 C1.98 0 3.96 0 6 0 C6.12350504 12.3779494 5.82637424 24.64865646 5 37 C4.34 37 3.68 37 3 37 C3.03480469 38.12535156 3.06960938 39.25070312 3.10546875 40.41015625 C3.32208601 50.71978414 2.48384164 59.97592483 0 70 C-0.66 70 -1.32 70 -2 70 C-2.01417969 70.69222656 -2.02835938 71.38445312 -2.04296875 72.09765625 C-2.41950657 79.82176999 -4.15781072 86.24846985 -6.74609375 93.45703125 C-7.98237693 96.95020522 -9.01708207 100.42949348 -10 104 C-10.66 104 -11.32 104 -12 104 C-12.33 106.64 -12.66 109.28 -13 112 C-13.66 112 -14.32 112 -15 112 C-15.3403125 113.7015625 -15.3403125 113.7015625 -15.6875 115.4375 C-16.73724961 119.72017415 -18.60387517 123.16841126 -20.87890625 126.921875 C-21.97764696 128.9585651 -22.54711446 130.74066089 -23 133 C-23.66 133 -24.32 133 -25 133 C-25.11214844 133.71542969 -25.22429687 134.43085938 -25.33984375 135.16796875 C-26.04456005 138.19115998 -27.13287798 140.56322688 -28.5625 143.3125 C-29.01753906 144.19550781 -29.47257812 145.07851563 -29.94140625 145.98828125 C-30.29074219 146.65214844 -30.64007812 147.31601562 -31 148 C-31.66 148 -32.32 148 -33 148 C-33.2475 148.680625 -33.495 149.36125 -33.75 150.0625 C-35.24197908 153.56865083 -37.06835511 156.71620368 -39 160 C-39.66 160 -40.32 160 -41 160 C-41 160.99 -41 161.98 -41 163 C-41.66 163 -42.32 163 -43 163 C-43.11472656 163.58265625 -43.22945312 164.1653125 -43.34765625 164.765625 C-44.04824062 167.16523135 -44.98192595 168.72860933 -46.4375 170.75 C-47.08525391 171.67039062 -47.08525391 171.67039062 -47.74609375 172.609375 C-48.15988281 173.06828125 -48.57367187 173.5271875 -49 174 C-49.66 174 -50.32 174 -51 174 C-51.33 175.32 -51.66 176.64 -52 178 C-53.32 178.33 -54.64 178.66 -56 179 C-56.33 180.65 -56.66 182.3 -57 184 C-57.66 184 -58.32 184 -59 184 C-59.33 184.99 -59.66 185.98 -60 187 C-60.66 187 -61.32 187 -62 187 C-62.66 188.65 -63.32 190.3 -64 192 C-64.99 192 -65.98 192 -67 192 C-67 192.66 -67 193.32 -67 194 C-67.66 194 -68.32 194 -69 194 C-69 194.99 -69 195.98 -69 197 C-72.33333333 200 -72.33333333 200 -75 200 C-75 200.99 -75 201.98 -75 203 C-75.66 203 -76.32 203 -77 203 C-77 203.66 -77 204.32 -77 205 C-77.99 205 -78.98 205 -80 205 C-80 205.66 -80 206.32 -80 207 C-80.66 207 -81.32 207 -82 207 C-82.2475 207.5775 -82.495 208.155 -82.75 208.75 C-84.18299988 211.32939979 -85.78424676 213.06121592 -88 215 C-88.66 215 -89.32 215 -90 215 C-90 215.66 -90 216.32 -90 217 C-90.78375 217.0825 -91.5675 217.165 -92.375 217.25 C-93.24125 217.4975 -94.1075 217.745 -95 218 C-95.45439453 218.91265625 -95.45439453 218.91265625 -95.91796875 219.84375 C-97.21332862 222.42511696 -98.62494349 223.54465107 -100.9375 225.25 C-101.97197266 226.03117187 -101.97197266 226.03117187 -103.02734375 226.828125 C-105 228 -105 228 -108 228 C-108.33 228.99 -108.66 229.98 -109 231 C-110.32 231 -111.64 231 -113 231 C-113.185625 231.5775 -113.37125 232.155 -113.5625 232.75 C-115.73128715 236.14462336 -118.40994626 237.20497313 -122 239 C-122.66 239 -123.32 239 -124 239 C-124 239.66 -124 240.32 -124 241 C-127.72965139 243.03435531 -129.66905042 244 -134 244 C-134 244.66 -134 245.32 -134 246 C-136.90548882 248.04169485 -138.40142046 249 -142 249 C-142 249.66 -142 250.32 -142 251 C-143.65 251 -145.3 251 -147 251 C-147 251.66 -147 252.32 -147 253 C-148.65 253.33 -150.3 253.66 -152 254 C-152 254.66 -152 255.32 -152 256 C-153.41396902 256.50757862 -154.83131729 257.00574925 -156.25 257.5 C-157.03890625 257.7784375 -157.8278125 258.056875 -158.640625 258.34375 C-161 259 -161 259 -165 259 C-165 259.66 -165 260.32 -165 261 C-172.62919622 263.94460205 -179.84741374 266.14183303 -188 267 C-188 267.66 -188 268.32 -188 269 C-188.7734375 269.10957031 -189.546875 269.21914063 -190.34375 269.33203125 C-197.26382395 270.33413326 -197.26382395 270.33413326 -203.875 272.5 C-208.74827854 274.54863938 -213.91031335 274.94037722 -219.12109375 275.5703125 C-221.89007941 275.69175345 -221.89007941 275.69175345 -223 277 C-224.47507118 277.14452718 -225.9563604 277.22694925 -227.4375 277.28125 C-228.33210937 277.31863281 -229.22671875 277.35601563 -230.1484375 277.39453125 C-233 277.5 -233 277.5 -235.8515625 277.60546875 C-236.74617187 277.64285156 -237.64078125 277.68023438 -238.5625 277.71875 C-239.38878906 277.74904297 -240.21507812 277.77933594 -241.06640625 277.81054688 C-243.00561156 277.79401659 -243.00561156 277.79401659 -244 279 C-245.46805292 279.09822744 -246.9407746 279.1279837 -248.41210938 279.12939453 C-249.34978149 279.13254669 -250.28745361 279.13569885 -251.25354004 279.13894653 C-252.27330933 279.1369223 -253.29307861 279.13489807 -254.34375 279.1328125 C-255.90289124 279.13424759 -255.90289124 279.13424759 -257.49353027 279.13571167 C-259.69604554 279.13639363 -261.89856279 279.13453827 -264.10107422 279.13037109 C-267.48539719 279.12502308 -270.86958744 279.13031559 -274.25390625 279.13671875 C-276.38802113 279.13605797 -278.52213592 279.13477681 -280.65625 279.1328125 C-281.67601929 279.13483673 -282.69578857 279.13686096 -283.74645996 279.13894653 C-284.68413208 279.13579437 -285.6218042 279.13264221 -286.58789062 279.12939453 C-287.41760376 279.12859894 -288.24731689 279.12780334 -289.10217285 279.12698364 C-291 279 -291 279 -292 278 C-293.54815405 277.85518713 -295.10228354 277.77297155 -296.65625 277.71875 C-297.59597656 277.68136719 -298.53570313 277.64398437 -299.50390625 277.60546875 C-300.98697266 277.55326172 -300.98697266 277.55326172 -302.5 277.5 C-304.4480743 277.43142372 -306.39600959 277.35873213 -308.34375 277.28125 C-309.21193359 277.25095703 -310.08011719 277.22066406 -310.97460938 277.18945312 C-313 277 -313 277 -314 276 C-316.01564712 275.67441823 -318.03799394 275.38997553 -320.0625 275.125 C-324.69370452 274.45045499 -328.63022631 273.5314072 -332.9140625 271.71484375 C-335.56347282 270.80689976 -338.16617954 270.45690707 -340.9375 270.0625 C-345.75201227 269.34092952 -349.62043197 268.06641147 -353.98046875 265.9453125 C-356.89244741 264.58225866 -359.89385649 263.80529647 -363 263 C-364.31346934 262.62840946 -365.62599639 262.25346998 -366.9375 261.875 C-367.948125 261.58625 -368.95875 261.2975 -370 261 C-370 260.34 -370 259.68 -370 259 C-370.99 259 -371.98 259 -373 259 C-373 258.34 -373 257.68 -373 257 C-373.804375 257.103125 -374.60875 257.20625 -375.4375 257.3125 C-379.71411324 256.93735849 -382.13094624 255.46573253 -385.765625 253.30078125 C-387.7143448 252.16629927 -389.60790547 251.23536322 -391.6875 250.375 C-394.87449988 249.05209439 -397.92993977 247.57246987 -401 246 C-401 245.34 -401 244.68 -401 244 C-402.98 243.67 -404.96 243.34 -407 243 C-407 242.34 -407 241.68 -407 241 C-409.65228812 239.92474806 -412.28368454 238.90543849 -415 238 C-415 237.34 -415 236.68 -415 236 C-415.78375 235.690625 -416.5675 235.38125 -417.375 235.0625 C-420 234 -420 234 -422 233 C-422 232.34 -422 231.68 -422 231 C-422.78375 230.9175 -423.5675 230.835 -424.375 230.75 C-425.674375 230.37875 -425.674375 230.37875 -427 230 C-427.69937532 228.68352881 -428.36729133 227.34977849 -429 226 C-430.33043574 225.65528325 -431.66430315 225.32373263 -433 225 C-434.921875 223.87890625 -434.921875 223.87890625 -436.75 222.5625 C-437.36359375 222.13066406 -437.9771875 221.69882812 -438.609375 221.25390625 C-439.29773438 220.63322266 -439.29773438 220.63322266 -440 220 C-440 219.34 -440 218.68 -440 218 C-440.804375 217.731875 -441.60875 217.46375 -442.4375 217.1875 C-443.283125 216.795625 -444.12875 216.40375 -445 216 C-445.33 215.01 -445.66 214.02 -446 213 C-446.66 213 -447.32 213 -448 213 C-448 156.24 -448 99.48 -448 41 C-446.35 41.33 -444.7 41.66 -443 42 C-440.85149605 46.53573055 -439.72609156 51.05626483 -438.60546875 55.921875 C-437.91059421 58.30686374 -436.93459585 60.44190037 -435.875 62.6875 C-434.35457484 65.94233608 -433.52799178 68.34193631 -434 72 C-433.34 72 -432.68 72 -432 72 C-429.95830515 74.90548882 -429 76.40142046 -429 80 C-428.34 80 -427.68 80 -427 80 C-427 81.65 -427 83.3 -427 85 C-425.515 85.495 -425.515 85.495 -424 86 C-422.71875 87.9609375 -422.71875 87.9609375 -421.5 90.375 C-419.78577733 93.75281187 -419.78577733 93.75281187 -417.34375 96.6015625 C-416 98 -416 98 -416 101 C-415.34 101 -414.68 101 -414 101 C-413.34 102.65 -412.68 104.3 -412 106 C-411.34 106 -410.68 106 -410 106 C-408 109 -408 109 -408 112 C-407.21625 112.226875 -406.4325 112.45375 -405.625 112.6875 C-403 114 -403 114 -401.6875 116.625 C-401.460625 117.40875 -401.23375 118.1925 -401 119 C-400.34 119 -399.68 119 -399 119 C-399 119.66 -399 120.32 -399 121 C-398.401875 121.268125 -397.80375 121.53625 -397.1875 121.8125 C-394.97161512 123.01540894 -393.69907139 124.15933933 -392 126 C-391.278125 126.680625 -390.55625 127.36125 -389.8125 128.0625 C-388 130 -388 130 -388 132 C-387.01 132 -386.02 132 -385 132 C-385 132.66 -385 133.32 -385 134 C-384.360625 134.268125 -383.72125 134.53625 -383.0625 134.8125 C-381 136 -381 136 -380 139 C-378.35 139.33 -376.7 139.66 -375 140 C-375 140.66 -375 141.32 -375 142 C-374.21625 142.309375 -373.4325 142.61875 -372.625 142.9375 C-370 144 -370 144 -368 145 C-368 145.66 -368 146.32 -368 147 C-367.38125 147.0825 -366.7625 147.165 -366.125 147.25 C-364 148 -364 148 -362.75 150.0625 C-362.5025 150.701875 -362.255 151.34125 -362 152 C-361.34 151.896875 -360.68 151.79375 -360 151.6875 C-356.16999612 152.08645874 -354.00252911 153.66753363 -350.8671875 155.80859375 C-348.90590459 157.16676317 -348.90590459 157.16676317 -346 158 C-346 158.66 -346 159.32 -346 160 C-344.63875 160.185625 -344.63875 160.185625 -343.25 160.375 C-340.41029677 160.92109677 -338.47409409 161.57263803 -336 163 C-336 163.66 -336 164.32 -336 165 C-334.700625 165.0825 -333.40125 165.165 -332.0625 165.25 C-327.58260191 165.7274813 -324.21346315 167.14136042 -320.19140625 169.0859375 C-316.81762771 170.49318202 -313.63398365 170.64832416 -310 171 C-307.65593068 171.62787571 -305.32206525 172.29508733 -303 173 C-297.93518846 174.43815636 -293.03578289 175.31260144 -287.78515625 175.75390625 C-286 176 -286 176 -285 177 C-282.26298822 177.16010481 -279.5483241 177.25946828 -276.80859375 177.31640625 C-275.57883568 177.3475779 -275.57883568 177.3475779 -274.32423401 177.37937927 C-271.69541099 177.44496494 -269.06648496 177.50380126 -266.4375 177.5625 C-264.65949439 177.60567667 -262.88149935 177.64929067 -261.10351562 177.69335938 C-256.73578366 177.80065543 -252.36794773 177.90189704 -248 178 C-248 177.34 -248 176.68 -248 176 C-247.36191406 175.93941406 -246.72382812 175.87882813 -246.06640625 175.81640625 C-245.24011719 175.73261719 -244.41382813 175.64882813 -243.5625 175.5625 C-242.32693359 175.44068359 -242.32693359 175.44068359 -241.06640625 175.31640625 C-239.01337975 175.21069185 -239.01337975 175.21069185 -238 174 C-234.64472786 173.42274888 -231.27821628 172.96914314 -227.90625 172.5 C-225.11524717 172.30757295 -225.11524717 172.30757295 -224 171 C-222.52660102 170.69936708 -221.04573405 170.43509133 -219.5625 170.1875 C-214.82836255 169.29900142 -210.70273275 167.78768392 -206.32421875 165.8046875 C-203.75101534 164.91379691 -201.70372925 164.85643915 -199 165 C-199 164.34 -199 163.68 -199 163 C-198.44014404 162.73783691 -197.88028809 162.47567383 -197.3034668 162.20556641 C-194.76363475 161.01453452 -192.22555644 159.81981069 -189.6875 158.625 C-188.80642578 158.2125 -187.92535156 157.8 -187.01757812 157.375 C-186.17001953 156.97539062 -185.32246094 156.57578125 -184.44921875 156.1640625 C-183.27879028 155.61419678 -183.27879028 155.61419678 -182.0847168 155.05322266 C-179.78753707 153.94495638 -179.78753707 153.94495638 -177 152 C-176.01 152 -175.02 152 -174 152 C-173.814375 151.4225 -173.62875 150.845 -173.4375 150.25 C-171.71628627 147.55592633 -169.73483119 146.54682035 -166.9453125 145.08203125 C-164.895908 143.94210144 -163.06915358 142.64746239 -161.1875 141.25 C-158 139 -158 139 -156 139 C-155.731875 138.360625 -155.46375 137.72125 -155.1875 137.0625 C-154 135 -154 135 -151 134 C-151 133.34 -151 132.68 -151 132 C-150.01 132 -149.02 132 -148 132 C-148 131.01 -148 130.02 -148 129 C-147.34 129 -146.68 129 -146 129 C-146 128.34 -146 127.68 -146 127 C-145.38125 126.938125 -144.7625 126.87625 -144.125 126.8125 C-143.42375 126.544375 -142.7225 126.27625 -142 126 C-141.5359375 124.7934375 -141.5359375 124.7934375 -141.0625 123.5625 C-140.711875 122.716875 -140.36125 121.87125 -140 121 C-139.154375 120.67 -138.30875 120.34 -137.4375 120 C-136.633125 119.67 -135.82875 119.34 -135 119 C-134.61781233 117.34385343 -134.28604898 115.67542976 -134 114 C-132 112.375 -132 112.375 -130 111 C-129.67 110.01 -129.34 109.02 -129 108 C-128.34 108 -127.68 108 -127 108 C-126.690625 107.21625 -126.38125 106.4325 -126.0625 105.625 C-125 103 -125 103 -124 101 C-123.34 101 -122.68 101 -122 101 C-121.87625 100.236875 -121.7525 99.47375 -121.625 98.6875 C-121 96 -121 96 -119 93 C-118.34 93 -117.68 93 -117 93 C-116.81824219 92.41992188 -116.63648438 91.83984375 -116.44921875 91.2421875 C-114.9581894 86.60852707 -113.31666424 82.30237645 -111 78 C-110.34 78 -109.68 78 -109 78 C-108.87625 76.9275 -108.7525 75.855 -108.625 74.75 C-108.10356064 71.62136385 -107.59911746 69.66519576 -106 67 C-105.34 67 -104.68 67 -104 67 C-103.96261719 66.3709375 -103.92523437 65.741875 -103.88671875 65.09375 C-103.49702577 60.02010021 -102.72664813 55.84161833 -100.765625 51.16015625 C-99.26233511 46.91873122 -98.69278046 42.43379498 -98 38 C-97.34 38 -96.68 38 -96 38 C-96.03480469 36.74703125 -96.06960938 35.4940625 -96.10546875 34.203125 C-96.13361128 32.55209676 -96.16091094 30.90105399 -96.1875 29.25 C-96.22520508 28.0125 -96.22520508 28.0125 -96.26367188 26.75 C-96.33735755 20.65865046 -96.33735755 20.65865046 -94.6875 17.4375 C-93 16 -93 16 -89.8125 15.75 C-88.884375 15.8325 -87.95625 15.915 -87 16 C-87 16.66 -87 17.32 -87 18 C-85.35 18 -83.7 18 -82 18 C-82 18.66 -82 19.32 -82 20 C-76.41326174 20.04957515 -70.82665261 20.08580253 -65.23974609 20.10986328 C-63.34063485 20.11989779 -61.44153896 20.13352843 -59.54248047 20.15087891 C-56.80692749 20.17523951 -54.07157947 20.18650877 -51.3359375 20.1953125 C-50.06996231 20.21079636 -50.06996231 20.21079636 -48.77841187 20.22659302 C-44.08102461 20.2274796 -40.44214468 19.70350442 -36 18 C-33.125 17.875 -33.125 17.875 -31 18 C-31 17.34 -31 16.68 -31 16 C-29.58603098 15.49242138 -28.16868271 14.99425075 -26.75 14.5 C-25.96109375 14.2215625 -25.1721875 13.943125 -24.359375 13.65625 C-22 13 -22 13 -18 13 C-18 12.34 -18 11.68 -18 11 C-16.71086513 10.32845067 -15.41859796 9.66291141 -14.125 9 C-13.40570312 8.62875 -12.68640625 8.2575 -11.9453125 7.875 C-10 7 -10 7 -8 7 C-8 6.34 -8 5.68 -8 5 C-7.01 5 -6.02 5 -5 5 C-5 4.34 -5 3.68 -5 3 C-3.35 2.67 -1.7 2.34 0 2 C0 1.34 0 0.68 0 0 Z " fill="#FFFFFF" transform="translate(992,314)"/>
</svg>
